<mxfile host="app.diagrams.net" modified="2024-05-10T17:32:09.440Z" agent="Mozilla/5.0 (Windows NT 10.0; Win64; x64) AppleWebKit/537.36 (KHTML, like Gecko) Chrome/124.0.0.0 Safari/537.36" etag="IDBc_0D2xTVYjF6nKcO3" version="24.3.1" type="device">
  <diagram name="Page-1" id="hBKYx0gY65Gfhqx1dLIA">
    <mxGraphModel dx="1477" dy="365" grid="1" gridSize="10" guides="1" tooltips="1" connect="1" arrows="1" fold="1" page="1" pageScale="1" pageWidth="850" pageHeight="1100" math="0" shadow="0">
      <root>
        <mxCell id="0" />
        <mxCell id="1" parent="0" />
        <mxCell id="0CfdTzKVjlrWjt0-x5wx-15" value="User" style="rounded=1;arcSize=10;whiteSpace=wrap;html=1;align=center;" parent="1" vertex="1">
          <mxGeometry x="541.5" y="628" width="100" height="40" as="geometry" />
        </mxCell>
        <mxCell id="0CfdTzKVjlrWjt0-x5wx-17" value="Email" style="ellipse;whiteSpace=wrap;html=1;align=center;" parent="1" vertex="1">
          <mxGeometry x="360" y="560" width="48" height="40" as="geometry" />
        </mxCell>
        <mxCell id="0CfdTzKVjlrWjt0-x5wx-18" value="Phone" style="ellipse;whiteSpace=wrap;html=1;align=center;" parent="1" vertex="1">
          <mxGeometry x="414.5" y="560" width="48" height="40" as="geometry" />
        </mxCell>
        <mxCell id="0CfdTzKVjlrWjt0-x5wx-20" value="" style="endArrow=none;html=1;rounded=0;exitX=0;exitY=0;exitDx=0;exitDy=0;entryX=0.5;entryY=1;entryDx=0;entryDy=0;" parent="1" source="0CfdTzKVjlrWjt0-x5wx-15" target="0CfdTzKVjlrWjt0-x5wx-18" edge="1">
          <mxGeometry width="50" height="50" relative="1" as="geometry">
            <mxPoint x="615.5" y="620" as="sourcePoint" />
            <mxPoint x="665.5" y="570" as="targetPoint" />
            <Array as="points">
              <mxPoint x="439" y="628" />
            </Array>
          </mxGeometry>
        </mxCell>
        <mxCell id="0CfdTzKVjlrWjt0-x5wx-22" value="" style="endArrow=none;html=1;rounded=0;exitX=0.5;exitY=1;exitDx=0;exitDy=0;entryX=0;entryY=0.5;entryDx=0;entryDy=0;" parent="1" source="0CfdTzKVjlrWjt0-x5wx-17" target="0CfdTzKVjlrWjt0-x5wx-15" edge="1">
          <mxGeometry width="50" height="50" relative="1" as="geometry">
            <mxPoint x="615.5" y="620" as="sourcePoint" />
            <mxPoint x="565.5" y="630" as="targetPoint" />
            <Array as="points">
              <mxPoint x="384" y="648" />
            </Array>
          </mxGeometry>
        </mxCell>
        <mxCell id="0CfdTzKVjlrWjt0-x5wx-24" value="First Name" style="ellipse;whiteSpace=wrap;html=1;align=center;" parent="1" vertex="1">
          <mxGeometry x="468.5" y="561" width="77.5" height="40" as="geometry" />
        </mxCell>
        <mxCell id="0CfdTzKVjlrWjt0-x5wx-25" value="Last Name" style="ellipse;whiteSpace=wrap;html=1;align=center;" parent="1" vertex="1">
          <mxGeometry x="555" y="560" width="73" height="40" as="geometry" />
        </mxCell>
        <mxCell id="0CfdTzKVjlrWjt0-x5wx-26" value="" style="endArrow=none;html=1;rounded=0;entryX=0.5;entryY=1;entryDx=0;entryDy=0;exitX=0.5;exitY=0;exitDx=0;exitDy=0;" parent="1" source="0CfdTzKVjlrWjt0-x5wx-15" target="0CfdTzKVjlrWjt0-x5wx-25" edge="1">
          <mxGeometry width="50" height="50" relative="1" as="geometry">
            <mxPoint x="566.5" y="560" as="sourcePoint" />
            <mxPoint x="666" y="560" as="targetPoint" />
            <Array as="points" />
          </mxGeometry>
        </mxCell>
        <mxCell id="0CfdTzKVjlrWjt0-x5wx-27" value="" style="endArrow=none;html=1;rounded=0;entryX=0.5;entryY=1;entryDx=0;entryDy=0;exitX=0.25;exitY=0;exitDx=0;exitDy=0;" parent="1" source="0CfdTzKVjlrWjt0-x5wx-15" target="0CfdTzKVjlrWjt0-x5wx-24" edge="1">
          <mxGeometry width="50" height="50" relative="1" as="geometry">
            <mxPoint x="566.5" y="560" as="sourcePoint" />
            <mxPoint x="666" y="560" as="targetPoint" />
            <Array as="points" />
          </mxGeometry>
        </mxCell>
        <mxCell id="0CfdTzKVjlrWjt0-x5wx-31" value="Store" style="rounded=1;arcSize=10;whiteSpace=wrap;html=1;align=center;" parent="1" vertex="1">
          <mxGeometry x="-20" y="789.77" width="100" height="40" as="geometry" />
        </mxCell>
        <mxCell id="0CfdTzKVjlrWjt0-x5wx-33" value="Name" style="ellipse;whiteSpace=wrap;html=1;align=center;" parent="1" vertex="1">
          <mxGeometry x="-135" y="705" width="50" height="40" as="geometry" />
        </mxCell>
        <mxCell id="0CfdTzKVjlrWjt0-x5wx-34" value="Address" style="ellipse;whiteSpace=wrap;html=1;align=center;" parent="1" vertex="1">
          <mxGeometry x="60" y="705" width="60" height="40" as="geometry" />
        </mxCell>
        <mxCell id="0CfdTzKVjlrWjt0-x5wx-35" value="Register Number" style="ellipse;whiteSpace=wrap;html=1;align=center;" parent="1" vertex="1">
          <mxGeometry x="131" y="705" width="80" height="40" as="geometry" />
        </mxCell>
        <mxCell id="0CfdTzKVjlrWjt0-x5wx-37" value="" style="endArrow=none;html=1;rounded=0;exitX=0.5;exitY=1;exitDx=0;exitDy=0;entryX=0;entryY=0;entryDx=0;entryDy=0;" parent="1" source="0CfdTzKVjlrWjt0-x5wx-33" target="0CfdTzKVjlrWjt0-x5wx-31" edge="1">
          <mxGeometry width="50" height="50" relative="1" as="geometry">
            <mxPoint x="171" y="811.77" as="sourcePoint" />
            <mxPoint x="221" y="761.77" as="targetPoint" />
            <Array as="points">
              <mxPoint x="-110" y="770" />
              <mxPoint x="-20" y="770" />
            </Array>
          </mxGeometry>
        </mxCell>
        <mxCell id="0CfdTzKVjlrWjt0-x5wx-38" value="" style="endArrow=none;html=1;rounded=0;exitX=0.5;exitY=1;exitDx=0;exitDy=0;entryX=0.75;entryY=0;entryDx=0;entryDy=0;" parent="1" source="0CfdTzKVjlrWjt0-x5wx-34" target="0CfdTzKVjlrWjt0-x5wx-31" edge="1">
          <mxGeometry width="50" height="50" relative="1" as="geometry">
            <mxPoint x="171" y="811.77" as="sourcePoint" />
            <mxPoint x="221" y="761.77" as="targetPoint" />
            <Array as="points">
              <mxPoint x="90" y="760" />
              <mxPoint x="55" y="760" />
            </Array>
          </mxGeometry>
        </mxCell>
        <mxCell id="0CfdTzKVjlrWjt0-x5wx-39" value="" style="endArrow=none;html=1;rounded=0;exitX=1;exitY=0;exitDx=0;exitDy=0;entryX=0.5;entryY=1;entryDx=0;entryDy=0;" parent="1" source="0CfdTzKVjlrWjt0-x5wx-31" target="0CfdTzKVjlrWjt0-x5wx-35" edge="1">
          <mxGeometry width="50" height="50" relative="1" as="geometry">
            <mxPoint x="171" y="811.77" as="sourcePoint" />
            <mxPoint x="221" y="761.77" as="targetPoint" />
            <Array as="points">
              <mxPoint x="80" y="770" />
              <mxPoint x="171" y="770" />
            </Array>
          </mxGeometry>
        </mxCell>
        <mxCell id="0CfdTzKVjlrWjt0-x5wx-42" value="Register" style="shape=rhombus;perimeter=rhombusPerimeter;whiteSpace=wrap;html=1;align=center;" parent="1" vertex="1">
          <mxGeometry x="200" y="779.77" width="120" height="60" as="geometry" />
        </mxCell>
        <mxCell id="0CfdTzKVjlrWjt0-x5wx-49" value="&lt;div style=&quot;text-align: start;&quot;&gt;&lt;font face=&quot;Roboto, arial, sans-serif&quot; color=&quot;#252525&quot;&gt;&lt;span style=&quot;background-color: rgb(255, 255, 255);&quot;&gt;Ad&lt;/span&gt;&lt;/font&gt;&lt;/div&gt;" style="rounded=1;arcSize=10;whiteSpace=wrap;html=1;align=center;" parent="1" vertex="1">
          <mxGeometry x="537.5" y="1170" width="100" height="40" as="geometry" />
        </mxCell>
        <mxCell id="0CfdTzKVjlrWjt0-x5wx-50" value="Title" style="ellipse;whiteSpace=wrap;html=1;align=center;" parent="1" vertex="1">
          <mxGeometry x="-700" y="1090" width="45.5" height="40" as="geometry" />
        </mxCell>
        <mxCell id="0CfdTzKVjlrWjt0-x5wx-52" value="Description" style="ellipse;whiteSpace=wrap;html=1;align=center;" parent="1" vertex="1">
          <mxGeometry x="-640" y="1090" width="73" height="40" as="geometry" />
        </mxCell>
        <mxCell id="0CfdTzKVjlrWjt0-x5wx-53" value="Price" style="ellipse;whiteSpace=wrap;html=1;align=center;" parent="1" vertex="1">
          <mxGeometry x="-550" y="1090" width="45.5" height="40" as="geometry" />
        </mxCell>
        <mxCell id="0CfdTzKVjlrWjt0-x5wx-54" value="Pictures" style="ellipse;shape=doubleEllipse;margin=3;whiteSpace=wrap;html=1;align=center;" parent="1" vertex="1">
          <mxGeometry x="-493" y="1090" width="59" height="40" as="geometry" />
        </mxCell>
        <mxCell id="0CfdTzKVjlrWjt0-x5wx-57" value="Created at" style="ellipse;whiteSpace=wrap;html=1;align=center;" parent="1" vertex="1">
          <mxGeometry x="-729.5" y="1250" width="89.5" height="40" as="geometry" />
        </mxCell>
        <mxCell id="0CfdTzKVjlrWjt0-x5wx-67" value="Register" style="shape=rhombus;perimeter=rhombusPerimeter;whiteSpace=wrap;html=1;align=center;" parent="1" vertex="1">
          <mxGeometry x="444.5" y="960" width="120" height="60" as="geometry" />
        </mxCell>
        <mxCell id="0CfdTzKVjlrWjt0-x5wx-70" value="" style="endArrow=none;html=1;rounded=0;exitX=0.5;exitY=1;exitDx=0;exitDy=0;entryX=0.5;entryY=0;entryDx=0;entryDy=0;" parent="1" source="0CfdTzKVjlrWjt0-x5wx-74" target="0CfdTzKVjlrWjt0-x5wx-67" edge="1">
          <mxGeometry relative="1" as="geometry">
            <mxPoint x="790" y="680" as="sourcePoint" />
            <mxPoint x="380" y="1000" as="targetPoint" />
          </mxGeometry>
        </mxCell>
        <mxCell id="0CfdTzKVjlrWjt0-x5wx-71" value="1" style="resizable=0;html=1;whiteSpace=wrap;align=right;verticalAlign=bottom;" parent="0CfdTzKVjlrWjt0-x5wx-70" connectable="0" vertex="1">
          <mxGeometry x="1" relative="1" as="geometry">
            <mxPoint x="16" y="-40" as="offset" />
          </mxGeometry>
        </mxCell>
        <mxCell id="0CfdTzKVjlrWjt0-x5wx-74" value="Customer" style="rounded=1;arcSize=10;whiteSpace=wrap;html=1;align=center;" parent="1" vertex="1">
          <mxGeometry x="454.5" y="789.77" width="100" height="40" as="geometry" />
        </mxCell>
        <mxCell id="0CfdTzKVjlrWjt0-x5wx-75" value="Support" style="rounded=1;arcSize=10;whiteSpace=wrap;html=1;align=center;" parent="1" vertex="1">
          <mxGeometry x="616.5" y="789.77" width="100" height="40" as="geometry" />
        </mxCell>
        <mxCell id="0CfdTzKVjlrWjt0-x5wx-82" value="" style="shape=link;html=1;rounded=0;entryX=0.5;entryY=1;entryDx=0;entryDy=0;exitX=0.5;exitY=0;exitDx=0;exitDy=0;" parent="1" source="0CfdTzKVjlrWjt0-x5wx-85" target="0CfdTzKVjlrWjt0-x5wx-15" edge="1">
          <mxGeometry width="100" relative="1" as="geometry">
            <mxPoint x="630" y="730" as="sourcePoint" />
            <mxPoint x="520" y="760" as="targetPoint" />
          </mxGeometry>
        </mxCell>
        <mxCell id="0CfdTzKVjlrWjt0-x5wx-83" value="" style="endArrow=none;html=1;rounded=0;exitX=0.5;exitY=0;exitDx=0;exitDy=0;entryX=0.5;entryY=1;entryDx=0;entryDy=0;" parent="1" source="0CfdTzKVjlrWjt0-x5wx-74" target="0CfdTzKVjlrWjt0-x5wx-85" edge="1">
          <mxGeometry width="50" height="50" relative="1" as="geometry">
            <mxPoint x="440" y="739.77" as="sourcePoint" />
            <mxPoint x="570" y="759.77" as="targetPoint" />
          </mxGeometry>
        </mxCell>
        <mxCell id="0CfdTzKVjlrWjt0-x5wx-84" value="" style="endArrow=none;html=1;rounded=0;exitX=0.5;exitY=0;exitDx=0;exitDy=0;entryX=0.5;entryY=1;entryDx=0;entryDy=0;" parent="1" source="0CfdTzKVjlrWjt0-x5wx-75" target="0CfdTzKVjlrWjt0-x5wx-85" edge="1">
          <mxGeometry width="50" height="50" relative="1" as="geometry">
            <mxPoint x="440" y="739.77" as="sourcePoint" />
            <mxPoint x="640" y="719.77" as="targetPoint" />
          </mxGeometry>
        </mxCell>
        <mxCell id="0CfdTzKVjlrWjt0-x5wx-85" value="D" style="ellipse;whiteSpace=wrap;html=1;aspect=fixed;" parent="1" vertex="1">
          <mxGeometry x="576.5" y="710" width="30" height="30" as="geometry" />
        </mxCell>
        <mxCell id="0CfdTzKVjlrWjt0-x5wx-88" value="Process" style="shape=rhombus;perimeter=rhombusPerimeter;whiteSpace=wrap;html=1;align=center;" parent="1" vertex="1">
          <mxGeometry x="606.5" y="960" width="120" height="60" as="geometry" />
        </mxCell>
        <mxCell id="0CfdTzKVjlrWjt0-x5wx-96" value="View" style="ellipse;whiteSpace=wrap;html=1;align=center;" parent="1" vertex="1">
          <mxGeometry x="-567" y="1250" width="50" height="40" as="geometry" />
        </mxCell>
        <mxCell id="0CfdTzKVjlrWjt0-x5wx-100" value="" style="endArrow=none;html=1;rounded=0;exitX=0.5;exitY=1;exitDx=0;exitDy=0;entryX=0.5;entryY=0;entryDx=0;entryDy=0;" parent="1" source="0CfdTzKVjlrWjt0-x5wx-75" target="0CfdTzKVjlrWjt0-x5wx-88" edge="1">
          <mxGeometry relative="1" as="geometry">
            <mxPoint x="650" y="800" as="sourcePoint" />
            <mxPoint x="810" y="800" as="targetPoint" />
          </mxGeometry>
        </mxCell>
        <mxCell id="0CfdTzKVjlrWjt0-x5wx-101" value="N" style="resizable=0;html=1;whiteSpace=wrap;align=right;verticalAlign=bottom;" parent="0CfdTzKVjlrWjt0-x5wx-100" connectable="0" vertex="1">
          <mxGeometry x="1" relative="1" as="geometry">
            <mxPoint x="14" y="-40" as="offset" />
          </mxGeometry>
        </mxCell>
        <mxCell id="0CfdTzKVjlrWjt0-x5wx-106" value="Description" style="ellipse;whiteSpace=wrap;html=1;align=center;" parent="1" vertex="1">
          <mxGeometry x="1192.5" y="789.77" width="70" height="40" as="geometry" />
        </mxCell>
        <mxCell id="0CfdTzKVjlrWjt0-x5wx-109" value="" style="endArrow=none;html=1;rounded=0;exitX=0;exitY=0.5;exitDx=0;exitDy=0;entryX=1;entryY=0.5;entryDx=0;entryDy=0;" parent="1" source="0CfdTzKVjlrWjt0-x5wx-106" target="QIARWO1vvbc_UHseHaY3-54" edge="1">
          <mxGeometry width="50" height="50" relative="1" as="geometry">
            <mxPoint x="1490" y="749.77" as="sourcePoint" />
            <mxPoint x="1540" y="699.77" as="targetPoint" />
          </mxGeometry>
        </mxCell>
        <mxCell id="QIARWO1vvbc_UHseHaY3-14" value="" style="endArrow=none;html=1;rounded=0;exitX=0.75;exitY=0;exitDx=0;exitDy=0;entryX=0.5;entryY=1;entryDx=0;entryDy=0;" parent="1" edge="1">
          <mxGeometry relative="1" as="geometry">
            <mxPoint x="613.5" y="1170" as="sourcePoint" />
            <mxPoint x="667.5" y="1020" as="targetPoint" />
            <Array as="points">
              <mxPoint x="614" y="1080" />
              <mxPoint x="668" y="1080" />
            </Array>
          </mxGeometry>
        </mxCell>
        <mxCell id="QIARWO1vvbc_UHseHaY3-15" value="M" style="resizable=0;html=1;whiteSpace=wrap;align=right;verticalAlign=bottom;" parent="QIARWO1vvbc_UHseHaY3-14" connectable="0" vertex="1">
          <mxGeometry x="1" relative="1" as="geometry">
            <mxPoint x="13" y="40" as="offset" />
          </mxGeometry>
        </mxCell>
        <mxCell id="QIARWO1vvbc_UHseHaY3-25" value="" style="endArrow=none;html=1;rounded=0;entryX=0;entryY=0.5;entryDx=0;entryDy=0;exitX=1;exitY=0.5;exitDx=0;exitDy=0;" parent="1" source="0CfdTzKVjlrWjt0-x5wx-42" target="0CfdTzKVjlrWjt0-x5wx-74" edge="1">
          <mxGeometry relative="1" as="geometry">
            <mxPoint x="310" y="810" as="sourcePoint" />
            <mxPoint x="470" y="810" as="targetPoint" />
          </mxGeometry>
        </mxCell>
        <mxCell id="QIARWO1vvbc_UHseHaY3-26" value="1" style="resizable=0;html=1;whiteSpace=wrap;align=right;verticalAlign=bottom;" parent="QIARWO1vvbc_UHseHaY3-25" connectable="0" vertex="1">
          <mxGeometry x="1" relative="1" as="geometry">
            <mxPoint x="-65" as="offset" />
          </mxGeometry>
        </mxCell>
        <mxCell id="QIARWO1vvbc_UHseHaY3-27" value="" style="shape=link;html=1;rounded=0;exitX=1;exitY=0.5;exitDx=0;exitDy=0;entryX=0;entryY=0.5;entryDx=0;entryDy=0;" parent="1" source="0CfdTzKVjlrWjt0-x5wx-31" target="0CfdTzKVjlrWjt0-x5wx-42" edge="1">
          <mxGeometry relative="1" as="geometry">
            <mxPoint x="310" y="810" as="sourcePoint" />
            <mxPoint x="470" y="810" as="targetPoint" />
          </mxGeometry>
        </mxCell>
        <mxCell id="QIARWO1vvbc_UHseHaY3-28" value="N" style="resizable=0;html=1;whiteSpace=wrap;align=right;verticalAlign=bottom;" parent="QIARWO1vvbc_UHseHaY3-27" connectable="0" vertex="1">
          <mxGeometry x="1" relative="1" as="geometry">
            <mxPoint x="-50" as="offset" />
          </mxGeometry>
        </mxCell>
        <mxCell id="QIARWO1vvbc_UHseHaY3-38" value="Support" style="rounded=1;arcSize=10;whiteSpace=wrap;html=1;align=center;" parent="1" vertex="1">
          <mxGeometry x="-570" y="789.77" width="100" height="40" as="geometry" />
        </mxCell>
        <mxCell id="QIARWO1vvbc_UHseHaY3-39" value="Process" style="shape=rhombus;perimeter=rhombusPerimeter;whiteSpace=wrap;html=1;align=center;" parent="1" vertex="1">
          <mxGeometry x="-360" y="779.77" width="120" height="60" as="geometry" />
        </mxCell>
        <mxCell id="QIARWO1vvbc_UHseHaY3-42" value="" style="endArrow=none;html=1;rounded=0;exitX=1;exitY=0.5;exitDx=0;exitDy=0;entryX=0;entryY=0.5;entryDx=0;entryDy=0;" parent="1" source="QIARWO1vvbc_UHseHaY3-38" target="QIARWO1vvbc_UHseHaY3-39" edge="1">
          <mxGeometry relative="1" as="geometry">
            <mxPoint x="30" y="870" as="sourcePoint" />
            <mxPoint x="190" y="870" as="targetPoint" />
          </mxGeometry>
        </mxCell>
        <mxCell id="QIARWO1vvbc_UHseHaY3-43" value="M" style="resizable=0;html=1;whiteSpace=wrap;align=right;verticalAlign=bottom;" parent="QIARWO1vvbc_UHseHaY3-42" connectable="0" vertex="1">
          <mxGeometry x="1" relative="1" as="geometry">
            <mxPoint x="-40" y="20" as="offset" />
          </mxGeometry>
        </mxCell>
        <mxCell id="QIARWO1vvbc_UHseHaY3-48" value="" style="shape=link;html=1;rounded=0;exitX=0.5;exitY=1;exitDx=0;exitDy=0;entryX=0.25;entryY=0;entryDx=0;entryDy=0;" parent="1" source="0CfdTzKVjlrWjt0-x5wx-67" target="0CfdTzKVjlrWjt0-x5wx-49" edge="1">
          <mxGeometry relative="1" as="geometry">
            <mxPoint x="310" y="1000" as="sourcePoint" />
            <mxPoint x="470" y="1000" as="targetPoint" />
            <Array as="points">
              <mxPoint x="504" y="1080" />
              <mxPoint x="563" y="1080" />
            </Array>
          </mxGeometry>
        </mxCell>
        <mxCell id="QIARWO1vvbc_UHseHaY3-49" value="N" style="resizable=0;html=1;whiteSpace=wrap;align=right;verticalAlign=bottom;" parent="QIARWO1vvbc_UHseHaY3-48" connectable="0" vertex="1">
          <mxGeometry x="1" relative="1" as="geometry">
            <mxPoint x="-42" y="-110" as="offset" />
          </mxGeometry>
        </mxCell>
        <mxCell id="QIARWO1vvbc_UHseHaY3-54" value="Ad Report" style="rounded=1;arcSize=10;whiteSpace=wrap;html=1;align=center;" parent="1" vertex="1">
          <mxGeometry x="1030" y="789.77" width="100" height="40" as="geometry" />
        </mxCell>
        <mxCell id="QIARWO1vvbc_UHseHaY3-56" value="Register" style="shape=rhombus;perimeter=rhombusPerimeter;whiteSpace=wrap;html=1;align=center;" parent="1" vertex="1">
          <mxGeometry x="240" y="1070" width="120" height="60" as="geometry" />
        </mxCell>
        <mxCell id="8Y0XfkwklUIzWa_7E_HV-10" value="" style="endArrow=none;html=1;rounded=0;entryX=0.5;entryY=0;entryDx=0;entryDy=0;exitX=1;exitY=1;exitDx=0;exitDy=0;" parent="1" source="0CfdTzKVjlrWjt0-x5wx-31" target="QIARWO1vvbc_UHseHaY3-56" edge="1">
          <mxGeometry relative="1" as="geometry">
            <mxPoint x="100" y="840" as="sourcePoint" />
            <mxPoint x="400" y="990" as="targetPoint" />
            <Array as="points">
              <mxPoint x="80" y="940" />
              <mxPoint x="300" y="940" />
            </Array>
          </mxGeometry>
        </mxCell>
        <mxCell id="8Y0XfkwklUIzWa_7E_HV-11" value="1" style="resizable=0;html=1;whiteSpace=wrap;align=right;verticalAlign=bottom;" parent="8Y0XfkwklUIzWa_7E_HV-10" connectable="0" vertex="1">
          <mxGeometry x="1" relative="1" as="geometry">
            <mxPoint x="-100" y="-130" as="offset" />
          </mxGeometry>
        </mxCell>
        <mxCell id="8Y0XfkwklUIzWa_7E_HV-12" value="" style="shape=link;html=1;rounded=0;exitX=1;exitY=0.5;exitDx=0;exitDy=0;entryX=0;entryY=0;entryDx=0;entryDy=0;" parent="1" source="QIARWO1vvbc_UHseHaY3-56" target="0CfdTzKVjlrWjt0-x5wx-49" edge="1">
          <mxGeometry relative="1" as="geometry">
            <mxPoint x="240" y="990" as="sourcePoint" />
            <mxPoint x="400" y="990" as="targetPoint" />
            <Array as="points">
              <mxPoint x="450" y="1100" />
              <mxPoint x="538" y="1100" />
            </Array>
          </mxGeometry>
        </mxCell>
        <mxCell id="8Y0XfkwklUIzWa_7E_HV-13" value="N" style="resizable=0;html=1;whiteSpace=wrap;align=right;verticalAlign=bottom;" parent="8Y0XfkwklUIzWa_7E_HV-12" connectable="0" vertex="1">
          <mxGeometry x="1" relative="1" as="geometry">
            <mxPoint x="-87" y="-70" as="offset" />
          </mxGeometry>
        </mxCell>
        <mxCell id="8Y0XfkwklUIzWa_7E_HV-20" value="Has" style="shape=rhombus;perimeter=rhombusPerimeter;whiteSpace=wrap;html=1;align=center;" parent="1" vertex="1">
          <mxGeometry x="248.5" y="1420" width="120" height="60" as="geometry" />
        </mxCell>
        <mxCell id="8Y0XfkwklUIzWa_7E_HV-27" value="Process" style="shape=rhombus;perimeter=rhombusPerimeter;whiteSpace=wrap;html=1;align=center;" parent="1" vertex="1">
          <mxGeometry x="810" y="779.77" width="120" height="60" as="geometry" />
        </mxCell>
        <mxCell id="8Y0XfkwklUIzWa_7E_HV-28" value="" style="endArrow=none;html=1;rounded=0;exitX=1;exitY=0.5;exitDx=0;exitDy=0;entryX=0;entryY=0.5;entryDx=0;entryDy=0;" parent="1" source="0CfdTzKVjlrWjt0-x5wx-75" target="8Y0XfkwklUIzWa_7E_HV-27" edge="1">
          <mxGeometry relative="1" as="geometry">
            <mxPoint x="680" y="940" as="sourcePoint" />
            <mxPoint x="840" y="940" as="targetPoint" />
          </mxGeometry>
        </mxCell>
        <mxCell id="8Y0XfkwklUIzWa_7E_HV-29" value="1" style="resizable=0;html=1;whiteSpace=wrap;align=right;verticalAlign=bottom;" parent="8Y0XfkwklUIzWa_7E_HV-28" connectable="0" vertex="1">
          <mxGeometry x="1" relative="1" as="geometry">
            <mxPoint x="-33" as="offset" />
          </mxGeometry>
        </mxCell>
        <mxCell id="8Y0XfkwklUIzWa_7E_HV-30" value="" style="endArrow=none;html=1;rounded=0;exitX=1;exitY=0.5;exitDx=0;exitDy=0;entryX=0;entryY=0.5;entryDx=0;entryDy=0;" parent="1" source="8Y0XfkwklUIzWa_7E_HV-27" target="QIARWO1vvbc_UHseHaY3-54" edge="1">
          <mxGeometry relative="1" as="geometry">
            <mxPoint x="680" y="940" as="sourcePoint" />
            <mxPoint x="840" y="940" as="targetPoint" />
          </mxGeometry>
        </mxCell>
        <mxCell id="8Y0XfkwklUIzWa_7E_HV-31" value="N" style="resizable=0;html=1;whiteSpace=wrap;align=right;verticalAlign=bottom;" parent="8Y0XfkwklUIzWa_7E_HV-30" connectable="0" vertex="1">
          <mxGeometry x="1" relative="1" as="geometry">
            <mxPoint x="-40" as="offset" />
          </mxGeometry>
        </mxCell>
        <mxCell id="8Y0XfkwklUIzWa_7E_HV-32" value="Register" style="shape=rhombus;perimeter=rhombusPerimeter;whiteSpace=wrap;html=1;align=center;" parent="1" vertex="1">
          <mxGeometry x="1020" y="1160" width="120" height="60" as="geometry" />
        </mxCell>
        <mxCell id="8Y0XfkwklUIzWa_7E_HV-35" value="" style="shape=link;html=1;rounded=0;entryX=0.5;entryY=1;entryDx=0;entryDy=0;exitX=0.5;exitY=0;exitDx=0;exitDy=0;" parent="1" source="8Y0XfkwklUIzWa_7E_HV-32" target="QIARWO1vvbc_UHseHaY3-54" edge="1">
          <mxGeometry relative="1" as="geometry">
            <mxPoint x="650" y="930" as="sourcePoint" />
            <mxPoint x="810" y="930" as="targetPoint" />
          </mxGeometry>
        </mxCell>
        <mxCell id="8Y0XfkwklUIzWa_7E_HV-36" value="M" style="resizable=0;html=1;whiteSpace=wrap;align=right;verticalAlign=bottom;" parent="8Y0XfkwklUIzWa_7E_HV-35" connectable="0" vertex="1">
          <mxGeometry x="1" relative="1" as="geometry">
            <mxPoint x="20" y="290" as="offset" />
          </mxGeometry>
        </mxCell>
        <mxCell id="8Y0XfkwklUIzWa_7E_HV-40" value="Created at" style="ellipse;whiteSpace=wrap;html=1;align=center;" parent="1" vertex="1">
          <mxGeometry x="1192.5" y="740" width="100" height="40" as="geometry" />
        </mxCell>
        <mxCell id="8Y0XfkwklUIzWa_7E_HV-42" value="Status" style="rounded=1;arcSize=10;whiteSpace=wrap;html=1;align=center;" parent="1" vertex="1">
          <mxGeometry x="-20" y="1170" width="100" height="40" as="geometry" />
        </mxCell>
        <mxCell id="8Y0XfkwklUIzWa_7E_HV-45" value="StatusID" style="ellipse;whiteSpace=wrap;html=1;align=center;fontStyle=4;" parent="1" vertex="1">
          <mxGeometry x="-29" y="1230" width="61" height="40" as="geometry" />
        </mxCell>
        <mxCell id="8Y0XfkwklUIzWa_7E_HV-47" value="Updated at" style="ellipse;whiteSpace=wrap;html=1;align=center;" parent="1" vertex="1">
          <mxGeometry x="245" y="1240" width="110" height="40" as="geometry" />
        </mxCell>
        <mxCell id="8Y0XfkwklUIzWa_7E_HV-48" value="Title" style="ellipse;whiteSpace=wrap;html=1;align=center;" parent="1" vertex="1">
          <mxGeometry x="41" y="1230" width="41" height="40" as="geometry" />
        </mxCell>
        <mxCell id="8Y0XfkwklUIzWa_7E_HV-49" value="Has" style="shape=rhombus;perimeter=rhombusPerimeter;whiteSpace=wrap;html=1;align=center;" parent="1" vertex="1">
          <mxGeometry x="240" y="1160" width="120" height="60" as="geometry" />
        </mxCell>
        <mxCell id="8Y0XfkwklUIzWa_7E_HV-50" value="" style="shape=link;html=1;rounded=0;entryX=0;entryY=0.5;entryDx=0;entryDy=0;exitX=1;exitY=0.5;exitDx=0;exitDy=0;" parent="1" source="8Y0XfkwklUIzWa_7E_HV-49" target="0CfdTzKVjlrWjt0-x5wx-49" edge="1">
          <mxGeometry relative="1" as="geometry">
            <mxPoint x="390" y="1020" as="sourcePoint" />
            <mxPoint x="550" y="1020" as="targetPoint" />
          </mxGeometry>
        </mxCell>
        <mxCell id="8Y0XfkwklUIzWa_7E_HV-51" value="N" style="resizable=0;html=1;whiteSpace=wrap;align=right;verticalAlign=bottom;" parent="8Y0XfkwklUIzWa_7E_HV-50" connectable="0" vertex="1">
          <mxGeometry x="1" relative="1" as="geometry">
            <mxPoint x="-87" as="offset" />
          </mxGeometry>
        </mxCell>
        <mxCell id="MZ66G47-zIH7tZrroCR9-13" value="Meta" style="ellipse;whiteSpace=wrap;html=1;align=center;" parent="1" vertex="1">
          <mxGeometry x="-628.5" y="1250" width="50" height="40" as="geometry" />
        </mxCell>
        <mxCell id="MZ66G47-zIH7tZrroCR9-19" value="" style="endArrow=none;html=1;rounded=0;exitX=1;exitY=0.5;exitDx=0;exitDy=0;entryX=0;entryY=0.5;entryDx=0;entryDy=0;" parent="1" source="0CfdTzKVjlrWjt0-x5wx-49" target="8Y0XfkwklUIzWa_7E_HV-32" edge="1">
          <mxGeometry relative="1" as="geometry">
            <mxPoint x="670" y="980" as="sourcePoint" />
            <mxPoint x="830" y="980" as="targetPoint" />
            <Array as="points" />
          </mxGeometry>
        </mxCell>
        <mxCell id="MZ66G47-zIH7tZrroCR9-20" value="K" style="resizable=0;html=1;whiteSpace=wrap;align=right;verticalAlign=bottom;" parent="MZ66G47-zIH7tZrroCR9-19" connectable="0" vertex="1">
          <mxGeometry x="1" relative="1" as="geometry">
            <mxPoint x="-40" as="offset" />
          </mxGeometry>
        </mxCell>
        <mxCell id="MZ66G47-zIH7tZrroCR9-21" value="Description" style="ellipse;whiteSpace=wrap;html=1;align=center;" parent="1" vertex="1">
          <mxGeometry x="-70" y="705" width="70" height="40" as="geometry" />
        </mxCell>
        <mxCell id="MZ66G47-zIH7tZrroCR9-22" value="" style="endArrow=none;html=1;rounded=0;exitX=0.5;exitY=1;exitDx=0;exitDy=0;entryX=0.25;entryY=0;entryDx=0;entryDy=0;" parent="1" source="MZ66G47-zIH7tZrroCR9-21" target="0CfdTzKVjlrWjt0-x5wx-31" edge="1">
          <mxGeometry relative="1" as="geometry">
            <mxPoint x="-20" y="820" as="sourcePoint" />
            <mxPoint x="30" y="790" as="targetPoint" />
            <Array as="points">
              <mxPoint x="-35" y="760" />
              <mxPoint x="5" y="760" />
            </Array>
          </mxGeometry>
        </mxCell>
        <mxCell id="MZ66G47-zIH7tZrroCR9-23" value="Has" style="shape=rhombus;perimeter=rhombusPerimeter;whiteSpace=wrap;html=1;align=center;" parent="1" vertex="1">
          <mxGeometry x="-30" y="960" width="120" height="60" as="geometry" />
        </mxCell>
        <mxCell id="MZ66G47-zIH7tZrroCR9-24" value="" style="endArrow=none;html=1;rounded=0;exitX=0.5;exitY=1;exitDx=0;exitDy=0;entryX=0.5;entryY=0;entryDx=0;entryDy=0;" parent="1" source="8Y0XfkwklUIzWa_7E_HV-49" target="8Y0XfkwklUIzWa_7E_HV-47" edge="1">
          <mxGeometry relative="1" as="geometry">
            <mxPoint x="450" y="1240" as="sourcePoint" />
            <mxPoint x="610" y="1240" as="targetPoint" />
          </mxGeometry>
        </mxCell>
        <mxCell id="MZ66G47-zIH7tZrroCR9-25" value="" style="shape=link;html=1;rounded=0;entryX=0.5;entryY=0;entryDx=0;entryDy=0;" parent="1" source="0CfdTzKVjlrWjt0-x5wx-31" target="MZ66G47-zIH7tZrroCR9-23" edge="1">
          <mxGeometry relative="1" as="geometry">
            <mxPoint x="80" y="1090" as="sourcePoint" />
            <mxPoint x="240" y="1090" as="targetPoint" />
          </mxGeometry>
        </mxCell>
        <mxCell id="MZ66G47-zIH7tZrroCR9-26" value="N" style="resizable=0;html=1;whiteSpace=wrap;align=right;verticalAlign=bottom;" parent="MZ66G47-zIH7tZrroCR9-25" connectable="0" vertex="1">
          <mxGeometry x="1" relative="1" as="geometry">
            <mxPoint x="20" y="-50" as="offset" />
          </mxGeometry>
        </mxCell>
        <mxCell id="MZ66G47-zIH7tZrroCR9-29" value="" style="endArrow=none;html=1;rounded=0;exitX=0.5;exitY=0;exitDx=0;exitDy=0;entryX=0.5;entryY=1;entryDx=0;entryDy=0;" parent="1" source="8Y0XfkwklUIzWa_7E_HV-48" target="8Y0XfkwklUIzWa_7E_HV-42" edge="1">
          <mxGeometry relative="1" as="geometry">
            <mxPoint x="80" y="1090" as="sourcePoint" />
            <mxPoint x="240" y="1090" as="targetPoint" />
          </mxGeometry>
        </mxCell>
        <mxCell id="MZ66G47-zIH7tZrroCR9-32" value="" style="endArrow=none;html=1;rounded=0;entryX=0.5;entryY=1;entryDx=0;entryDy=0;exitX=0.5;exitY=0;exitDx=0;exitDy=0;" parent="1" source="8Y0XfkwklUIzWa_7E_HV-45" target="8Y0XfkwklUIzWa_7E_HV-42" edge="1">
          <mxGeometry relative="1" as="geometry">
            <mxPoint x="80" y="1090" as="sourcePoint" />
            <mxPoint x="240" y="1090" as="targetPoint" />
          </mxGeometry>
        </mxCell>
        <mxCell id="MZ66G47-zIH7tZrroCR9-33" value="Last Access" style="ellipse;whiteSpace=wrap;html=1;align=center;" parent="1" vertex="1">
          <mxGeometry x="637.5" y="561" width="77" height="40" as="geometry" />
        </mxCell>
        <mxCell id="MZ66G47-zIH7tZrroCR9-34" value="" style="endArrow=none;html=1;rounded=0;exitX=0.5;exitY=1;exitDx=0;exitDy=0;entryX=0.75;entryY=0;entryDx=0;entryDy=0;" parent="1" source="MZ66G47-zIH7tZrroCR9-33" target="0CfdTzKVjlrWjt0-x5wx-15" edge="1">
          <mxGeometry relative="1" as="geometry">
            <mxPoint x="490" y="720" as="sourcePoint" />
            <mxPoint x="500" y="660" as="targetPoint" />
            <Array as="points" />
          </mxGeometry>
        </mxCell>
        <mxCell id="MZ66G47-zIH7tZrroCR9-35" value="Profile Picture" style="ellipse;whiteSpace=wrap;html=1;align=center;" parent="1" vertex="1">
          <mxGeometry x="720" y="561" width="90" height="42" as="geometry" />
        </mxCell>
        <mxCell id="MZ66G47-zIH7tZrroCR9-36" value="" style="endArrow=none;html=1;rounded=0;exitX=0.5;exitY=1;exitDx=0;exitDy=0;entryX=1;entryY=0;entryDx=0;entryDy=0;" parent="1" source="MZ66G47-zIH7tZrroCR9-35" target="0CfdTzKVjlrWjt0-x5wx-15" edge="1">
          <mxGeometry relative="1" as="geometry">
            <mxPoint x="440" y="630" as="sourcePoint" />
            <mxPoint x="590" y="630" as="targetPoint" />
            <Array as="points">
              <mxPoint x="765" y="628" />
            </Array>
          </mxGeometry>
        </mxCell>
        <mxCell id="MZ66G47-zIH7tZrroCR9-47" value="Ad Report Status" style="rounded=1;arcSize=10;whiteSpace=wrap;html=1;align=center;" parent="1" vertex="1">
          <mxGeometry x="946" y="563" width="100" height="40" as="geometry" />
        </mxCell>
        <mxCell id="MZ66G47-zIH7tZrroCR9-48" value="ARSID" style="ellipse;whiteSpace=wrap;html=1;align=center;fontStyle=4;" parent="1" vertex="1">
          <mxGeometry x="936" y="500" width="59" height="40" as="geometry" />
        </mxCell>
        <mxCell id="MZ66G47-zIH7tZrroCR9-49" value="Name" style="ellipse;whiteSpace=wrap;html=1;align=center;" parent="1" vertex="1">
          <mxGeometry x="1001" y="501" width="45" height="42" as="geometry" />
        </mxCell>
        <mxCell id="MZ66G47-zIH7tZrroCR9-50" value="" style="endArrow=none;html=1;rounded=0;exitX=0.5;exitY=1;exitDx=0;exitDy=0;entryX=0.5;entryY=0;entryDx=0;entryDy=0;" parent="1" source="MZ66G47-zIH7tZrroCR9-49" target="MZ66G47-zIH7tZrroCR9-47" edge="1">
          <mxGeometry relative="1" as="geometry">
            <mxPoint x="1015" y="490" as="sourcePoint" />
            <mxPoint x="946" y="580" as="targetPoint" />
          </mxGeometry>
        </mxCell>
        <mxCell id="MZ66G47-zIH7tZrroCR9-51" value="" style="endArrow=none;html=1;rounded=0;exitX=0.5;exitY=1;exitDx=0;exitDy=0;entryX=0.5;entryY=0;entryDx=0;entryDy=0;" parent="1" source="MZ66G47-zIH7tZrroCR9-48" target="MZ66G47-zIH7tZrroCR9-47" edge="1">
          <mxGeometry relative="1" as="geometry">
            <mxPoint x="1015" y="490" as="sourcePoint" />
            <mxPoint x="1025.5" y="560" as="targetPoint" />
          </mxGeometry>
        </mxCell>
        <mxCell id="MZ66G47-zIH7tZrroCR9-52" value="Has" style="shape=rhombus;perimeter=rhombusPerimeter;whiteSpace=wrap;html=1;align=center;" parent="1" vertex="1">
          <mxGeometry x="936" y="635.23" width="120" height="60" as="geometry" />
        </mxCell>
        <mxCell id="MZ66G47-zIH7tZrroCR9-55" value="" style="shape=link;html=1;rounded=0;entryX=0.5;entryY=1;entryDx=0;entryDy=0;exitX=0.25;exitY=0;exitDx=0;exitDy=0;" parent="1" source="QIARWO1vvbc_UHseHaY3-54" target="MZ66G47-zIH7tZrroCR9-52" edge="1">
          <mxGeometry relative="1" as="geometry">
            <mxPoint x="1130" y="720" as="sourcePoint" />
            <mxPoint x="1290" y="720" as="targetPoint" />
            <Array as="points">
              <mxPoint x="1055" y="720" />
              <mxPoint x="996" y="720" />
            </Array>
          </mxGeometry>
        </mxCell>
        <mxCell id="MZ66G47-zIH7tZrroCR9-56" value="1" style="resizable=0;html=1;whiteSpace=wrap;align=right;verticalAlign=bottom;" parent="MZ66G47-zIH7tZrroCR9-55" connectable="0" vertex="1">
          <mxGeometry x="1" relative="1" as="geometry">
            <mxPoint x="10" y="25" as="offset" />
          </mxGeometry>
        </mxCell>
        <mxCell id="MZ66G47-zIH7tZrroCR9-57" value="" style="endArrow=none;html=1;rounded=0;entryX=0;entryY=0.5;entryDx=0;entryDy=0;exitX=1;exitY=0;exitDx=0;exitDy=0;" parent="1" source="QIARWO1vvbc_UHseHaY3-54" target="8Y0XfkwklUIzWa_7E_HV-40" edge="1">
          <mxGeometry relative="1" as="geometry">
            <mxPoint x="980" y="740" as="sourcePoint" />
            <mxPoint x="1140" y="740" as="targetPoint" />
            <Array as="points">
              <mxPoint x="1130" y="760" />
            </Array>
          </mxGeometry>
        </mxCell>
        <mxCell id="MZ66G47-zIH7tZrroCR9-58" value="Ad Report Category" style="rounded=1;arcSize=10;whiteSpace=wrap;html=1;align=center;" parent="1" vertex="1">
          <mxGeometry x="1110" y="563" width="100" height="40" as="geometry" />
        </mxCell>
        <mxCell id="MZ66G47-zIH7tZrroCR9-59" value="ARCID" style="ellipse;whiteSpace=wrap;html=1;align=center;fontStyle=4;" parent="1" vertex="1">
          <mxGeometry x="1090" y="502" width="70" height="40" as="geometry" />
        </mxCell>
        <mxCell id="MZ66G47-zIH7tZrroCR9-60" value="Name" style="ellipse;whiteSpace=wrap;html=1;align=center;" parent="1" vertex="1">
          <mxGeometry x="1165" y="502" width="45" height="40" as="geometry" />
        </mxCell>
        <mxCell id="MZ66G47-zIH7tZrroCR9-61" value="" style="endArrow=none;html=1;rounded=0;exitX=0.5;exitY=1;exitDx=0;exitDy=0;entryX=0.5;entryY=0;entryDx=0;entryDy=0;" parent="1" source="MZ66G47-zIH7tZrroCR9-60" target="MZ66G47-zIH7tZrroCR9-58" edge="1">
          <mxGeometry relative="1" as="geometry">
            <mxPoint x="1329" y="432" as="sourcePoint" />
            <mxPoint x="1489" y="432" as="targetPoint" />
          </mxGeometry>
        </mxCell>
        <mxCell id="MZ66G47-zIH7tZrroCR9-62" value="" style="endArrow=none;html=1;rounded=0;exitX=0.5;exitY=1;exitDx=0;exitDy=0;entryX=0.5;entryY=0;entryDx=0;entryDy=0;" parent="1" source="MZ66G47-zIH7tZrroCR9-59" target="MZ66G47-zIH7tZrroCR9-58" edge="1">
          <mxGeometry relative="1" as="geometry">
            <mxPoint x="1329" y="432" as="sourcePoint" />
            <mxPoint x="1339.5" y="502" as="targetPoint" />
          </mxGeometry>
        </mxCell>
        <mxCell id="MZ66G47-zIH7tZrroCR9-63" value="Has" style="shape=rhombus;perimeter=rhombusPerimeter;whiteSpace=wrap;html=1;align=center;" parent="1" vertex="1">
          <mxGeometry x="1100" y="635.23" width="120" height="60" as="geometry" />
        </mxCell>
        <mxCell id="MZ66G47-zIH7tZrroCR9-69" value="Viewed" style="shape=rhombus;perimeter=rhombusPerimeter;whiteSpace=wrap;html=1;align=center;" parent="1" vertex="1">
          <mxGeometry x="528" y="900" width="120" height="60" as="geometry" />
        </mxCell>
        <mxCell id="MZ66G47-zIH7tZrroCR9-72" value="" style="endArrow=none;html=1;rounded=0;entryX=0.5;entryY=1;entryDx=0;entryDy=0;exitX=0.5;exitY=0;exitDx=0;exitDy=0;" parent="1" source="0CfdTzKVjlrWjt0-x5wx-49" target="MZ66G47-zIH7tZrroCR9-69" edge="1">
          <mxGeometry relative="1" as="geometry">
            <mxPoint x="750" y="950" as="sourcePoint" />
            <mxPoint x="910" y="950" as="targetPoint" />
          </mxGeometry>
        </mxCell>
        <mxCell id="MZ66G47-zIH7tZrroCR9-73" value="N" style="resizable=0;html=1;whiteSpace=wrap;align=right;verticalAlign=bottom;" parent="MZ66G47-zIH7tZrroCR9-72" connectable="0" vertex="1">
          <mxGeometry x="1" relative="1" as="geometry">
            <mxPoint x="12" y="30" as="offset" />
          </mxGeometry>
        </mxCell>
        <mxCell id="MZ66G47-zIH7tZrroCR9-76" value="Province" style="rounded=1;arcSize=10;whiteSpace=wrap;html=1;align=center;" parent="1" vertex="1">
          <mxGeometry x="538" y="1550.14" width="100" height="40" as="geometry" />
        </mxCell>
        <mxCell id="MZ66G47-zIH7tZrroCR9-77" value="City" style="rounded=1;arcSize=10;whiteSpace=wrap;html=1;align=center;" parent="1" vertex="1">
          <mxGeometry x="815" y="1550.14" width="100" height="40" as="geometry" />
        </mxCell>
        <mxCell id="MZ66G47-zIH7tZrroCR9-78" value="Has" style="shape=rhombus;perimeter=rhombusPerimeter;whiteSpace=wrap;html=1;align=center;" parent="1" vertex="1">
          <mxGeometry x="527.5" y="1420.3400000000001" width="120" height="60" as="geometry" />
        </mxCell>
        <mxCell id="MZ66G47-zIH7tZrroCR9-80" value="Store Category" style="rounded=1;arcSize=10;whiteSpace=wrap;html=1;align=center;" parent="1" vertex="1">
          <mxGeometry x="-20" y="490" width="100" height="40" as="geometry" />
        </mxCell>
        <mxCell id="MZ66G47-zIH7tZrroCR9-81" value="Name" style="ellipse;whiteSpace=wrap;html=1;align=center;" parent="1" vertex="1">
          <mxGeometry x="6" y="420" width="50" height="40" as="geometry" />
        </mxCell>
        <mxCell id="MZ66G47-zIH7tZrroCR9-82" value="Description" style="ellipse;whiteSpace=wrap;html=1;align=center;" parent="1" vertex="1">
          <mxGeometry x="70" y="420" width="80" height="40" as="geometry" />
        </mxCell>
        <mxCell id="MZ66G47-zIH7tZrroCR9-84" value="SCID" style="ellipse;whiteSpace=wrap;html=1;align=center;fontStyle=4;" parent="1" vertex="1">
          <mxGeometry x="-85" y="420" width="80" height="40" as="geometry" />
        </mxCell>
        <mxCell id="MZ66G47-zIH7tZrroCR9-85" value="" style="endArrow=none;html=1;rounded=0;exitX=0.5;exitY=1;exitDx=0;exitDy=0;entryX=0;entryY=0;entryDx=0;entryDy=0;" parent="1" source="MZ66G47-zIH7tZrroCR9-84" target="MZ66G47-zIH7tZrroCR9-80" edge="1">
          <mxGeometry relative="1" as="geometry">
            <mxPoint x="-69" y="450" as="sourcePoint" />
            <mxPoint x="91" y="450" as="targetPoint" />
          </mxGeometry>
        </mxCell>
        <mxCell id="MZ66G47-zIH7tZrroCR9-87" value="" style="endArrow=none;html=1;rounded=0;entryX=0.5;entryY=1;entryDx=0;entryDy=0;exitX=1;exitY=0;exitDx=0;exitDy=0;" parent="1" source="MZ66G47-zIH7tZrroCR9-80" target="MZ66G47-zIH7tZrroCR9-82" edge="1">
          <mxGeometry relative="1" as="geometry">
            <mxPoint x="-69" y="450" as="sourcePoint" />
            <mxPoint x="91" y="450" as="targetPoint" />
          </mxGeometry>
        </mxCell>
        <mxCell id="MZ66G47-zIH7tZrroCR9-89" value="Has" style="shape=rhombus;perimeter=rhombusPerimeter;whiteSpace=wrap;html=1;align=center;" parent="1" vertex="1">
          <mxGeometry x="-30" y="628" width="120" height="60" as="geometry" />
        </mxCell>
        <mxCell id="MZ66G47-zIH7tZrroCR9-90" value="Ad Category" style="rounded=1;arcSize=10;whiteSpace=wrap;html=1;align=center;" parent="1" vertex="1">
          <mxGeometry x="258.5" y="1550.14" width="100" height="40" as="geometry" />
        </mxCell>
        <mxCell id="MZ66G47-zIH7tZrroCR9-91" value="Name" style="ellipse;whiteSpace=wrap;html=1;align=center;" parent="1" vertex="1">
          <mxGeometry x="308.5" y="1610" width="50" height="40" as="geometry" />
        </mxCell>
        <mxCell id="MZ66G47-zIH7tZrroCR9-92" value="Description" style="ellipse;whiteSpace=wrap;html=1;align=center;" parent="1" vertex="1">
          <mxGeometry x="364.5" y="1610.14" width="80" height="40" as="geometry" />
        </mxCell>
        <mxCell id="MZ66G47-zIH7tZrroCR9-93" value="ParentID" style="ellipse;whiteSpace=wrap;html=1;align=center;" parent="1" vertex="1">
          <mxGeometry x="240" y="1610.48" width="59" height="40" as="geometry" />
        </mxCell>
        <mxCell id="MZ66G47-zIH7tZrroCR9-94" value="ACID" style="ellipse;whiteSpace=wrap;html=1;align=center;fontStyle=4;" parent="1" vertex="1">
          <mxGeometry x="180" y="1610" width="53" height="40" as="geometry" />
        </mxCell>
        <mxCell id="MZ66G47-zIH7tZrroCR9-95" value="" style="endArrow=none;html=1;rounded=0;exitX=0.5;exitY=0;exitDx=0;exitDy=0;entryX=0;entryY=1;entryDx=0;entryDy=0;" parent="1" source="MZ66G47-zIH7tZrroCR9-94" target="MZ66G47-zIH7tZrroCR9-90" edge="1">
          <mxGeometry relative="1" as="geometry">
            <mxPoint x="299" y="1510.14" as="sourcePoint" />
            <mxPoint x="459" y="1510.14" as="targetPoint" />
          </mxGeometry>
        </mxCell>
        <mxCell id="MZ66G47-zIH7tZrroCR9-96" value="" style="endArrow=none;html=1;rounded=0;exitX=0.5;exitY=0;exitDx=0;exitDy=0;entryX=0.5;entryY=1;entryDx=0;entryDy=0;" parent="1" source="MZ66G47-zIH7tZrroCR9-93" target="MZ66G47-zIH7tZrroCR9-90" edge="1">
          <mxGeometry relative="1" as="geometry">
            <mxPoint x="299" y="1510.14" as="sourcePoint" />
            <mxPoint x="459" y="1510.14" as="targetPoint" />
          </mxGeometry>
        </mxCell>
        <mxCell id="MZ66G47-zIH7tZrroCR9-97" value="" style="endArrow=none;html=1;rounded=0;entryX=0.5;entryY=0;entryDx=0;entryDy=0;exitX=1;exitY=1;exitDx=0;exitDy=0;" parent="1" source="MZ66G47-zIH7tZrroCR9-90" target="MZ66G47-zIH7tZrroCR9-92" edge="1">
          <mxGeometry relative="1" as="geometry">
            <mxPoint x="299" y="1510.14" as="sourcePoint" />
            <mxPoint x="459" y="1510.14" as="targetPoint" />
          </mxGeometry>
        </mxCell>
        <mxCell id="MZ66G47-zIH7tZrroCR9-98" value="" style="endArrow=none;html=1;rounded=0;exitX=0.5;exitY=1;exitDx=0;exitDy=0;entryX=0.5;entryY=0;entryDx=0;entryDy=0;" parent="1" source="MZ66G47-zIH7tZrroCR9-90" target="MZ66G47-zIH7tZrroCR9-91" edge="1">
          <mxGeometry relative="1" as="geometry">
            <mxPoint x="299" y="1510.14" as="sourcePoint" />
            <mxPoint x="459" y="1510.14" as="targetPoint" />
          </mxGeometry>
        </mxCell>
        <mxCell id="MZ66G47-zIH7tZrroCR9-99" value="" style="shape=link;html=1;rounded=0;exitX=0;exitY=1;exitDx=0;exitDy=0;entryX=0.5;entryY=0;entryDx=0;entryDy=0;" parent="1" source="0CfdTzKVjlrWjt0-x5wx-49" target="8Y0XfkwklUIzWa_7E_HV-20" edge="1">
          <mxGeometry relative="1" as="geometry">
            <mxPoint x="450" y="1360" as="sourcePoint" />
            <mxPoint x="610" y="1360" as="targetPoint" />
            <Array as="points">
              <mxPoint x="538" y="1340" />
              <mxPoint x="309" y="1340" />
            </Array>
          </mxGeometry>
        </mxCell>
        <mxCell id="MZ66G47-zIH7tZrroCR9-100" value="N" style="resizable=0;html=1;whiteSpace=wrap;align=right;verticalAlign=bottom;" parent="MZ66G47-zIH7tZrroCR9-99" connectable="0" vertex="1">
          <mxGeometry x="1" relative="1" as="geometry">
            <mxPoint x="20" y="-20" as="offset" />
          </mxGeometry>
        </mxCell>
        <mxCell id="MZ66G47-zIH7tZrroCR9-101" value="" style="endArrow=none;html=1;rounded=0;exitX=0.5;exitY=0;exitDx=0;exitDy=0;entryX=0.5;entryY=1;entryDx=0;entryDy=0;" parent="1" source="MZ66G47-zIH7tZrroCR9-90" target="8Y0XfkwklUIzWa_7E_HV-20" edge="1">
          <mxGeometry relative="1" as="geometry">
            <mxPoint x="261.5" y="1420.14" as="sourcePoint" />
            <mxPoint x="399" y="1400.14" as="targetPoint" />
          </mxGeometry>
        </mxCell>
        <mxCell id="MZ66G47-zIH7tZrroCR9-102" value="1" style="resizable=0;html=1;whiteSpace=wrap;align=right;verticalAlign=bottom;" parent="MZ66G47-zIH7tZrroCR9-101" connectable="0" vertex="1">
          <mxGeometry x="1" relative="1" as="geometry">
            <mxPoint x="20" y="40" as="offset" />
          </mxGeometry>
        </mxCell>
        <mxCell id="MZ66G47-zIH7tZrroCR9-103" value="" style="shape=link;html=1;rounded=0;exitX=0.5;exitY=0;exitDx=0;exitDy=0;entryX=0.5;entryY=1;entryDx=0;entryDy=0;" parent="1" source="0CfdTzKVjlrWjt0-x5wx-31" target="MZ66G47-zIH7tZrroCR9-89" edge="1">
          <mxGeometry relative="1" as="geometry">
            <mxPoint x="-10" y="660" as="sourcePoint" />
            <mxPoint x="30" y="690" as="targetPoint" />
          </mxGeometry>
        </mxCell>
        <mxCell id="MZ66G47-zIH7tZrroCR9-104" value="N" style="resizable=0;html=1;whiteSpace=wrap;align=right;verticalAlign=bottom;" parent="MZ66G47-zIH7tZrroCR9-103" connectable="0" vertex="1">
          <mxGeometry x="1" relative="1" as="geometry">
            <mxPoint x="20" y="57" as="offset" />
          </mxGeometry>
        </mxCell>
        <mxCell id="MZ66G47-zIH7tZrroCR9-105" value="" style="endArrow=none;html=1;rounded=0;exitX=0.5;exitY=1;exitDx=0;exitDy=0;entryX=0.5;entryY=0;entryDx=0;entryDy=0;" parent="1" source="MZ66G47-zIH7tZrroCR9-80" target="MZ66G47-zIH7tZrroCR9-89" edge="1">
          <mxGeometry relative="1" as="geometry">
            <mxPoint x="-10" y="610" as="sourcePoint" />
            <mxPoint x="150" y="610" as="targetPoint" />
          </mxGeometry>
        </mxCell>
        <mxCell id="MZ66G47-zIH7tZrroCR9-106" value="1" style="resizable=0;html=1;whiteSpace=wrap;align=right;verticalAlign=bottom;" parent="MZ66G47-zIH7tZrroCR9-105" connectable="0" vertex="1">
          <mxGeometry x="1" relative="1" as="geometry">
            <mxPoint x="20" y="-28" as="offset" />
          </mxGeometry>
        </mxCell>
        <mxCell id="MZ66G47-zIH7tZrroCR9-110" value="" style="endArrow=none;html=1;rounded=0;exitX=0.5;exitY=0;exitDx=0;exitDy=0;entryX=0.5;entryY=1;entryDx=0;entryDy=0;" parent="1" source="8Y0XfkwklUIzWa_7E_HV-42" target="MZ66G47-zIH7tZrroCR9-23" edge="1">
          <mxGeometry relative="1" as="geometry">
            <mxPoint x="40" y="1000" as="sourcePoint" />
            <mxPoint x="200" y="1000" as="targetPoint" />
          </mxGeometry>
        </mxCell>
        <mxCell id="MZ66G47-zIH7tZrroCR9-111" value="1" style="resizable=0;html=1;whiteSpace=wrap;align=right;verticalAlign=bottom;" parent="MZ66G47-zIH7tZrroCR9-110" connectable="0" vertex="1">
          <mxGeometry x="1" relative="1" as="geometry">
            <mxPoint x="20" y="80" as="offset" />
          </mxGeometry>
        </mxCell>
        <mxCell id="MZ66G47-zIH7tZrroCR9-114" value="" style="endArrow=none;html=1;rounded=0;exitX=1;exitY=0.5;exitDx=0;exitDy=0;entryX=0;entryY=0.5;entryDx=0;entryDy=0;" parent="1" source="8Y0XfkwklUIzWa_7E_HV-42" target="8Y0XfkwklUIzWa_7E_HV-49" edge="1">
          <mxGeometry relative="1" as="geometry">
            <mxPoint x="80" y="1150" as="sourcePoint" />
            <mxPoint x="240" y="1150" as="targetPoint" />
          </mxGeometry>
        </mxCell>
        <mxCell id="MZ66G47-zIH7tZrroCR9-115" value="1" style="resizable=0;html=1;whiteSpace=wrap;align=right;verticalAlign=bottom;" parent="MZ66G47-zIH7tZrroCR9-114" connectable="0" vertex="1">
          <mxGeometry x="1" relative="1" as="geometry">
            <mxPoint x="-69" as="offset" />
          </mxGeometry>
        </mxCell>
        <mxCell id="MZ66G47-zIH7tZrroCR9-116" value="Has" style="shape=rhombus;perimeter=rhombusPerimeter;whiteSpace=wrap;html=1;align=center;" parent="1" vertex="1">
          <mxGeometry x="805" y="1420.3400000000001" width="120" height="60" as="geometry" />
        </mxCell>
        <mxCell id="MZ66G47-zIH7tZrroCR9-117" value="Has" style="shape=rhombus;perimeter=rhombusPerimeter;whiteSpace=wrap;html=1;align=center;" parent="1" vertex="1">
          <mxGeometry x="669.5" y="1540.4800000000002" width="120" height="60" as="geometry" />
        </mxCell>
        <mxCell id="MZ66G47-zIH7tZrroCR9-120" value="" style="shape=link;html=1;rounded=0;exitX=1;exitY=0.5;exitDx=0;exitDy=0;entryX=0;entryY=0.5;entryDx=0;entryDy=0;" parent="1" source="MZ66G47-zIH7tZrroCR9-76" target="MZ66G47-zIH7tZrroCR9-117" edge="1">
          <mxGeometry relative="1" as="geometry">
            <mxPoint x="681.5" y="1510.3400000000001" as="sourcePoint" />
            <mxPoint x="841.5" y="1510.3400000000001" as="targetPoint" />
          </mxGeometry>
        </mxCell>
        <mxCell id="MZ66G47-zIH7tZrroCR9-121" value="1" style="resizable=0;html=1;whiteSpace=wrap;align=right;verticalAlign=bottom;" parent="MZ66G47-zIH7tZrroCR9-120" connectable="0" vertex="1">
          <mxGeometry x="1" relative="1" as="geometry">
            <mxPoint x="-10" as="offset" />
          </mxGeometry>
        </mxCell>
        <mxCell id="MZ66G47-zIH7tZrroCR9-122" value="" style="shape=link;html=1;rounded=0;entryX=0;entryY=0.5;entryDx=0;entryDy=0;exitX=1;exitY=0.5;exitDx=0;exitDy=0;" parent="1" source="MZ66G47-zIH7tZrroCR9-117" target="MZ66G47-zIH7tZrroCR9-77" edge="1">
          <mxGeometry relative="1" as="geometry">
            <mxPoint x="681.5" y="1510.3400000000001" as="sourcePoint" />
            <mxPoint x="841.5" y="1510.3400000000001" as="targetPoint" />
          </mxGeometry>
        </mxCell>
        <mxCell id="MZ66G47-zIH7tZrroCR9-123" value="N" style="resizable=0;html=1;whiteSpace=wrap;align=right;verticalAlign=bottom;" parent="MZ66G47-zIH7tZrroCR9-122" connectable="0" vertex="1">
          <mxGeometry x="1" relative="1" as="geometry">
            <mxPoint x="-10" as="offset" />
          </mxGeometry>
        </mxCell>
        <mxCell id="MZ66G47-zIH7tZrroCR9-128" value="" style="endArrow=none;html=1;rounded=0;exitX=0.5;exitY=0;exitDx=0;exitDy=0;entryX=0.5;entryY=1;entryDx=0;entryDy=0;" parent="1" source="MZ66G47-zIH7tZrroCR9-76" target="MZ66G47-zIH7tZrroCR9-78" edge="1">
          <mxGeometry relative="1" as="geometry">
            <mxPoint x="608" y="1350.8200000000002" as="sourcePoint" />
            <mxPoint x="658" y="1400.8200000000002" as="targetPoint" />
          </mxGeometry>
        </mxCell>
        <mxCell id="MZ66G47-zIH7tZrroCR9-129" value="1" style="resizable=0;html=1;whiteSpace=wrap;align=right;verticalAlign=bottom;" parent="MZ66G47-zIH7tZrroCR9-128" connectable="0" vertex="1">
          <mxGeometry x="1" relative="1" as="geometry">
            <mxPoint x="16" y="40" as="offset" />
          </mxGeometry>
        </mxCell>
        <mxCell id="MZ66G47-zIH7tZrroCR9-130" value="" style="shape=link;html=1;rounded=0;entryX=1;entryY=1;entryDx=0;entryDy=0;exitX=0.5;exitY=0;exitDx=0;exitDy=0;" parent="1" source="MZ66G47-zIH7tZrroCR9-116" target="0CfdTzKVjlrWjt0-x5wx-49" edge="1">
          <mxGeometry relative="1" as="geometry">
            <mxPoint x="470" y="1430" as="sourcePoint" />
            <mxPoint x="630" y="1430" as="targetPoint" />
            <Array as="points">
              <mxPoint x="865" y="1340" />
              <mxPoint x="638" y="1340" />
            </Array>
          </mxGeometry>
        </mxCell>
        <mxCell id="MZ66G47-zIH7tZrroCR9-131" value="N" style="resizable=0;html=1;whiteSpace=wrap;align=right;verticalAlign=bottom;" parent="MZ66G47-zIH7tZrroCR9-130" connectable="0" vertex="1">
          <mxGeometry x="1" relative="1" as="geometry">
            <mxPoint x="243" y="190" as="offset" />
          </mxGeometry>
        </mxCell>
        <mxCell id="MZ66G47-zIH7tZrroCR9-132" value="" style="endArrow=none;html=1;rounded=0;entryX=0.5;entryY=1;entryDx=0;entryDy=0;exitX=0.5;exitY=0;exitDx=0;exitDy=0;" parent="1" source="MZ66G47-zIH7tZrroCR9-77" target="MZ66G47-zIH7tZrroCR9-116" edge="1">
          <mxGeometry relative="1" as="geometry">
            <mxPoint x="681.5" y="1460.3400000000001" as="sourcePoint" />
            <mxPoint x="1026.5" y="1400.3400000000001" as="targetPoint" />
          </mxGeometry>
        </mxCell>
        <mxCell id="MZ66G47-zIH7tZrroCR9-133" value="1" style="resizable=0;html=1;whiteSpace=wrap;align=right;verticalAlign=bottom;" parent="MZ66G47-zIH7tZrroCR9-132" connectable="0" vertex="1">
          <mxGeometry x="1" relative="1" as="geometry">
            <mxPoint x="16" y="40" as="offset" />
          </mxGeometry>
        </mxCell>
        <mxCell id="MZ66G47-zIH7tZrroCR9-136" value="Customer" style="rounded=1;arcSize=10;whiteSpace=wrap;html=1;align=center;" parent="1" vertex="1">
          <mxGeometry x="1030" y="1310" width="100" height="40" as="geometry" />
        </mxCell>
        <mxCell id="MZ66G47-zIH7tZrroCR9-137" value="" style="endArrow=none;html=1;rounded=0;exitX=0.5;exitY=1;exitDx=0;exitDy=0;entryX=0.5;entryY=0;entryDx=0;entryDy=0;" parent="1" source="8Y0XfkwklUIzWa_7E_HV-32" target="MZ66G47-zIH7tZrroCR9-136" edge="1">
          <mxGeometry relative="1" as="geometry">
            <mxPoint x="810" y="890" as="sourcePoint" />
            <mxPoint x="970" y="890" as="targetPoint" />
          </mxGeometry>
        </mxCell>
        <mxCell id="MZ66G47-zIH7tZrroCR9-138" value="N" style="resizable=0;html=1;whiteSpace=wrap;align=right;verticalAlign=bottom;" parent="MZ66G47-zIH7tZrroCR9-137" connectable="0" vertex="1">
          <mxGeometry x="1" relative="1" as="geometry">
            <mxPoint x="20" y="-30" as="offset" />
          </mxGeometry>
        </mxCell>
        <mxCell id="MZ66G47-zIH7tZrroCR9-140" value="StoreID" style="ellipse;whiteSpace=wrap;html=1;align=center;fontStyle=4;" parent="1" vertex="1">
          <mxGeometry x="-209" y="705" width="60" height="40" as="geometry" />
        </mxCell>
        <mxCell id="MZ66G47-zIH7tZrroCR9-141" value="" style="endArrow=none;html=1;rounded=0;exitX=0.5;exitY=1;exitDx=0;exitDy=0;entryX=0;entryY=0;entryDx=0;entryDy=0;" parent="1" source="MZ66G47-zIH7tZrroCR9-140" target="0CfdTzKVjlrWjt0-x5wx-31" edge="1">
          <mxGeometry relative="1" as="geometry">
            <mxPoint x="-40" y="720" as="sourcePoint" />
            <mxPoint x="120" y="720" as="targetPoint" />
            <Array as="points">
              <mxPoint x="-179" y="790" />
            </Array>
          </mxGeometry>
        </mxCell>
        <mxCell id="MZ66G47-zIH7tZrroCR9-142" value="" style="endArrow=none;html=1;rounded=0;entryX=0.5;entryY=0;entryDx=0;entryDy=0;exitX=0.5;exitY=1;exitDx=0;exitDy=0;" parent="1" source="MZ66G47-zIH7tZrroCR9-81" target="MZ66G47-zIH7tZrroCR9-80" edge="1">
          <mxGeometry relative="1" as="geometry">
            <mxPoint x="-70" y="490" as="sourcePoint" />
            <mxPoint x="90" y="490" as="targetPoint" />
          </mxGeometry>
        </mxCell>
        <mxCell id="MZ66G47-zIH7tZrroCR9-143" value="Customer Status" style="rounded=1;arcSize=10;whiteSpace=wrap;html=1;align=center;" parent="1" vertex="1">
          <mxGeometry x="246" y="490" width="100" height="40" as="geometry" />
        </mxCell>
        <mxCell id="MZ66G47-zIH7tZrroCR9-144" value="Name" style="ellipse;whiteSpace=wrap;html=1;align=center;" parent="1" vertex="1">
          <mxGeometry x="271" y="420" width="50" height="40" as="geometry" />
        </mxCell>
        <mxCell id="MZ66G47-zIH7tZrroCR9-145" value="Description" style="ellipse;whiteSpace=wrap;html=1;align=center;" parent="1" vertex="1">
          <mxGeometry x="335" y="420" width="80" height="40" as="geometry" />
        </mxCell>
        <mxCell id="MZ66G47-zIH7tZrroCR9-146" value="CSID" style="ellipse;whiteSpace=wrap;html=1;align=center;fontStyle=4;" parent="1" vertex="1">
          <mxGeometry x="180" y="420" width="80" height="40" as="geometry" />
        </mxCell>
        <mxCell id="MZ66G47-zIH7tZrroCR9-147" value="" style="endArrow=none;html=1;rounded=0;exitX=0.5;exitY=1;exitDx=0;exitDy=0;entryX=0;entryY=0;entryDx=0;entryDy=0;" parent="1" source="MZ66G47-zIH7tZrroCR9-146" target="MZ66G47-zIH7tZrroCR9-143" edge="1">
          <mxGeometry relative="1" as="geometry">
            <mxPoint x="196" y="450" as="sourcePoint" />
            <mxPoint x="356" y="450" as="targetPoint" />
          </mxGeometry>
        </mxCell>
        <mxCell id="MZ66G47-zIH7tZrroCR9-148" value="" style="endArrow=none;html=1;rounded=0;entryX=0.5;entryY=1;entryDx=0;entryDy=0;exitX=1;exitY=0;exitDx=0;exitDy=0;" parent="1" source="MZ66G47-zIH7tZrroCR9-143" target="MZ66G47-zIH7tZrroCR9-145" edge="1">
          <mxGeometry relative="1" as="geometry">
            <mxPoint x="196" y="450" as="sourcePoint" />
            <mxPoint x="356" y="450" as="targetPoint" />
          </mxGeometry>
        </mxCell>
        <mxCell id="MZ66G47-zIH7tZrroCR9-150" value="" style="endArrow=none;html=1;rounded=0;entryX=0.5;entryY=0;entryDx=0;entryDy=0;exitX=0.5;exitY=1;exitDx=0;exitDy=0;" parent="1" source="MZ66G47-zIH7tZrroCR9-144" target="MZ66G47-zIH7tZrroCR9-143" edge="1">
          <mxGeometry relative="1" as="geometry">
            <mxPoint x="195" y="490" as="sourcePoint" />
            <mxPoint x="355" y="490" as="targetPoint" />
          </mxGeometry>
        </mxCell>
        <mxCell id="MZ66G47-zIH7tZrroCR9-151" value="Has" style="shape=rhombus;perimeter=rhombusPerimeter;whiteSpace=wrap;html=1;align=center;" parent="1" vertex="1">
          <mxGeometry x="236" y="618" width="120" height="60" as="geometry" />
        </mxCell>
        <mxCell id="MZ66G47-zIH7tZrroCR9-152" value="" style="endArrow=none;html=1;rounded=0;entryX=0.5;entryY=1;entryDx=0;entryDy=0;exitX=0.5;exitY=0;exitDx=0;exitDy=0;" parent="1" source="MZ66G47-zIH7tZrroCR9-151" target="MZ66G47-zIH7tZrroCR9-143" edge="1">
          <mxGeometry relative="1" as="geometry">
            <mxPoint x="100" y="680" as="sourcePoint" />
            <mxPoint x="260" y="680" as="targetPoint" />
          </mxGeometry>
        </mxCell>
        <mxCell id="MZ66G47-zIH7tZrroCR9-153" value="1" style="resizable=0;html=1;whiteSpace=wrap;align=right;verticalAlign=bottom;" parent="MZ66G47-zIH7tZrroCR9-152" connectable="0" vertex="1">
          <mxGeometry x="1" relative="1" as="geometry">
            <mxPoint x="13" y="70" as="offset" />
          </mxGeometry>
        </mxCell>
        <mxCell id="MZ66G47-zIH7tZrroCR9-154" value="" style="shape=link;html=1;rounded=0;exitX=0.5;exitY=1;exitDx=0;exitDy=0;entryX=0;entryY=0;entryDx=0;entryDy=0;" parent="1" source="MZ66G47-zIH7tZrroCR9-151" target="0CfdTzKVjlrWjt0-x5wx-74" edge="1">
          <mxGeometry relative="1" as="geometry">
            <mxPoint x="310" y="705" as="sourcePoint" />
            <mxPoint x="470" y="705" as="targetPoint" />
            <Array as="points">
              <mxPoint x="296" y="720" />
              <mxPoint x="454" y="720" />
            </Array>
          </mxGeometry>
        </mxCell>
        <mxCell id="MZ66G47-zIH7tZrroCR9-155" value="N" style="resizable=0;html=1;whiteSpace=wrap;align=right;verticalAlign=bottom;" parent="MZ66G47-zIH7tZrroCR9-154" connectable="0" vertex="1">
          <mxGeometry x="1" relative="1" as="geometry">
            <mxPoint x="-144" y="-79" as="offset" />
          </mxGeometry>
        </mxCell>
        <mxCell id="MZ66G47-zIH7tZrroCR9-156" value="Has&lt;span style=&quot;color: rgba(0, 0, 0, 0); font-family: monospace; font-size: 0px; text-align: start; text-wrap: nowrap;&quot;&gt;%3CmxGraphModel%3E%3Croot%3E%3CmxCell%20id%3D%220%22%2F%3E%3CmxCell%20id%3D%221%22%20parent%3D%220%22%2F%3E%3CmxCell%20id%3D%222%22%20value%3D%22StoreCategory%22%20style%3D%22rounded%3D1%3BarcSize%3D10%3BwhiteSpace%3Dwrap%3Bhtml%3D1%3Balign%3Dcenter%3B%22%20vertex%3D%221%22%20parent%3D%221%22%3E%3CmxGeometry%20x%3D%22-20%22%20y%3D%22490%22%20width%3D%22100%22%20height%3D%2240%22%20as%3D%22geometry%22%2F%3E%3C%2FmxCell%3E%3CmxCell%20id%3D%223%22%20value%3D%22Name%22%20style%3D%22ellipse%3BwhiteSpace%3Dwrap%3Bhtml%3D1%3Balign%3Dcenter%3B%22%20vertex%3D%221%22%20parent%3D%221%22%3E%3CmxGeometry%20x%3D%226%22%20y%3D%22420%22%20width%3D%2250%22%20height%3D%2240%22%20as%3D%22geometry%22%2F%3E%3C%2FmxCell%3E%3CmxCell%20id%3D%224%22%20value%3D%22Description%22%20style%3D%22ellipse%3BwhiteSpace%3Dwrap%3Bhtml%3D1%3Balign%3Dcenter%3B%22%20vertex%3D%221%22%20parent%3D%221%22%3E%3CmxGeometry%20x%3D%2270%22%20y%3D%22420%22%20width%3D%2280%22%20height%3D%2240%22%20as%3D%22geometry%22%2F%3E%3C%2FmxCell%3E%3CmxCell%20id%3D%225%22%20value%3D%22SCID%22%20style%3D%22ellipse%3BwhiteSpace%3Dwrap%3Bhtml%3D1%3Balign%3Dcenter%3BfontStyle%3D4%3B%22%20vertex%3D%221%22%20parent%3D%221%22%3E%3CmxGeometry%20x%3D%22-85%22%20y%3D%22420%22%20width%3D%2280%22%20height%3D%2240%22%20as%3D%22geometry%22%2F%3E%3C%2FmxCell%3E%3CmxCell%20id%3D%226%22%20value%3D%22%22%20style%3D%22endArrow%3Dnone%3Bhtml%3D1%3Brounded%3D0%3BexitX%3D0.5%3BexitY%3D1%3BexitDx%3D0%3BexitDy%3D0%3BentryX%3D0%3BentryY%3D0%3BentryDx%3D0%3BentryDy%3D0%3B%22%20edge%3D%221%22%20source%3D%225%22%20target%3D%222%22%20parent%3D%221%22%3E%3CmxGeometry%20relative%3D%221%22%20as%3D%22geometry%22%3E%3CmxPoint%20x%3D%22-69%22%20y%3D%22450%22%20as%3D%22sourcePoint%22%2F%3E%3CmxPoint%20x%3D%2291%22%20y%3D%22450%22%20as%3D%22targetPoint%22%2F%3E%3C%2FmxGeometry%3E%3C%2FmxCell%3E%3CmxCell%20id%3D%227%22%20value%3D%22%22%20style%3D%22endArrow%3Dnone%3Bhtml%3D1%3Brounded%3D0%3BentryX%3D0.5%3BentryY%3D1%3BentryDx%3D0%3BentryDy%3D0%3BexitX%3D1%3BexitY%3D0%3BexitDx%3D0%3BexitDy%3D0%3B%22%20edge%3D%221%22%20source%3D%222%22%20target%3D%224%22%20parent%3D%221%22%3E%3CmxGeometry%20relative%3D%221%22%20as%3D%22geometry%22%3E%3CmxPoint%20x%3D%22-69%22%20y%3D%22450%22%20as%3D%22sourcePoint%22%2F%3E%3CmxPoint%20x%3D%2291%22%20y%3D%22450%22%20as%3D%22targetPoint%22%2F%3E%3C%2FmxGeometry%3E%3C%2FmxCell%3E%3CmxCell%20id%3D%228%22%20value%3D%22N%22%20style%3D%22resizable%3D0%3Bhtml%3D1%3BwhiteSpace%3Dwrap%3Balign%3Dright%3BverticalAlign%3Dbottom%3B%22%20connectable%3D%220%22%20vertex%3D%221%22%20parent%3D%221%22%3E%3CmxGeometry%20x%3D%2230%22%20y%3D%22591.7777777777776%22%20as%3D%22geometry%22%2F%3E%3C%2FmxCell%3E%3CmxCell%20id%3D%229%22%20value%3D%22%22%20style%3D%22endArrow%3Dnone%3Bhtml%3D1%3Brounded%3D0%3BentryX%3D0.5%3BentryY%3D0%3BentryDx%3D0%3BentryDy%3D0%3BexitX%3D0.5%3BexitY%3D1%3BexitDx%3D0%3BexitDy%3D0%3B%22%20edge%3D%221%22%20source%3D%223%22%20target%3D%222%22%20parent%3D%221%22%3E%3CmxGeometry%20relative%3D%221%22%20as%3D%22geometry%22%3E%3CmxPoint%20x%3D%22-70%22%20y%3D%22490%22%20as%3D%22sourcePoint%22%2F%3E%3CmxPoint%20x%3D%2290%22%20y%3D%22490%22%20as%3D%22targetPoint%22%2F%3E%3C%2FmxGeometry%3E%3C%2FmxCell%3E%3C%2Froot%3E%3C%2FmxGraphModel%3E&lt;/span&gt;" style="shape=rhombus;perimeter=rhombusPerimeter;whiteSpace=wrap;html=1;align=center;" parent="1" vertex="1">
          <mxGeometry x="1020" y="1540.14" width="120" height="60" as="geometry" />
        </mxCell>
        <mxCell id="MZ66G47-zIH7tZrroCR9-157" value="" style="shape=link;html=1;rounded=0;entryX=0.5;entryY=1;entryDx=0;entryDy=0;exitX=0.5;exitY=0;exitDx=0;exitDy=0;" parent="1" source="MZ66G47-zIH7tZrroCR9-156" target="MZ66G47-zIH7tZrroCR9-136" edge="1">
          <mxGeometry relative="1" as="geometry">
            <mxPoint x="860" y="1310" as="sourcePoint" />
            <mxPoint x="1020" y="1310" as="targetPoint" />
          </mxGeometry>
        </mxCell>
        <mxCell id="MZ66G47-zIH7tZrroCR9-158" value="N" style="resizable=0;html=1;whiteSpace=wrap;align=right;verticalAlign=bottom;" parent="MZ66G47-zIH7tZrroCR9-157" connectable="0" vertex="1">
          <mxGeometry x="1" relative="1" as="geometry">
            <mxPoint x="20" y="170" as="offset" />
          </mxGeometry>
        </mxCell>
        <mxCell id="MZ66G47-zIH7tZrroCR9-159" value="" style="endArrow=none;html=1;rounded=0;exitX=1;exitY=0.5;exitDx=0;exitDy=0;entryX=0;entryY=0.5;entryDx=0;entryDy=0;" parent="1" source="MZ66G47-zIH7tZrroCR9-77" target="MZ66G47-zIH7tZrroCR9-156" edge="1">
          <mxGeometry relative="1" as="geometry">
            <mxPoint x="860" y="1370" as="sourcePoint" />
            <mxPoint x="1020" y="1370" as="targetPoint" />
          </mxGeometry>
        </mxCell>
        <mxCell id="MZ66G47-zIH7tZrroCR9-160" value="1" style="resizable=0;html=1;whiteSpace=wrap;align=right;verticalAlign=bottom;" parent="MZ66G47-zIH7tZrroCR9-159" connectable="0" vertex="1">
          <mxGeometry x="1" relative="1" as="geometry">
            <mxPoint x="-40" as="offset" />
          </mxGeometry>
        </mxCell>
        <mxCell id="MZ66G47-zIH7tZrroCR9-161" value="Has&lt;span style=&quot;color: rgba(0, 0, 0, 0); font-family: monospace; font-size: 0px; text-align: start; text-wrap: nowrap;&quot;&gt;%3CmxGraphModel%3E%3Croot%3E%3CmxCell%20id%3D%220%22%2F%3E%3CmxCell%20id%3D%221%22%20parent%3D%220%22%2F%3E%3CmxCell%20id%3D%222%22%20value%3D%22StoreCategory%22%20style%3D%22rounded%3D1%3BarcSize%3D10%3BwhiteSpace%3Dwrap%3Bhtml%3D1%3Balign%3Dcenter%3B%22%20vertex%3D%221%22%20parent%3D%221%22%3E%3CmxGeometry%20x%3D%22-20%22%20y%3D%22490%22%20width%3D%22100%22%20height%3D%2240%22%20as%3D%22geometry%22%2F%3E%3C%2FmxCell%3E%3CmxCell%20id%3D%223%22%20value%3D%22Name%22%20style%3D%22ellipse%3BwhiteSpace%3Dwrap%3Bhtml%3D1%3Balign%3Dcenter%3B%22%20vertex%3D%221%22%20parent%3D%221%22%3E%3CmxGeometry%20x%3D%226%22%20y%3D%22420%22%20width%3D%2250%22%20height%3D%2240%22%20as%3D%22geometry%22%2F%3E%3C%2FmxCell%3E%3CmxCell%20id%3D%224%22%20value%3D%22Description%22%20style%3D%22ellipse%3BwhiteSpace%3Dwrap%3Bhtml%3D1%3Balign%3Dcenter%3B%22%20vertex%3D%221%22%20parent%3D%221%22%3E%3CmxGeometry%20x%3D%2270%22%20y%3D%22420%22%20width%3D%2280%22%20height%3D%2240%22%20as%3D%22geometry%22%2F%3E%3C%2FmxCell%3E%3CmxCell%20id%3D%225%22%20value%3D%22SCID%22%20style%3D%22ellipse%3BwhiteSpace%3Dwrap%3Bhtml%3D1%3Balign%3Dcenter%3BfontStyle%3D4%3B%22%20vertex%3D%221%22%20parent%3D%221%22%3E%3CmxGeometry%20x%3D%22-85%22%20y%3D%22420%22%20width%3D%2280%22%20height%3D%2240%22%20as%3D%22geometry%22%2F%3E%3C%2FmxCell%3E%3CmxCell%20id%3D%226%22%20value%3D%22%22%20style%3D%22endArrow%3Dnone%3Bhtml%3D1%3Brounded%3D0%3BexitX%3D0.5%3BexitY%3D1%3BexitDx%3D0%3BexitDy%3D0%3BentryX%3D0%3BentryY%3D0%3BentryDx%3D0%3BentryDy%3D0%3B%22%20edge%3D%221%22%20source%3D%225%22%20target%3D%222%22%20parent%3D%221%22%3E%3CmxGeometry%20relative%3D%221%22%20as%3D%22geometry%22%3E%3CmxPoint%20x%3D%22-69%22%20y%3D%22450%22%20as%3D%22sourcePoint%22%2F%3E%3CmxPoint%20x%3D%2291%22%20y%3D%22450%22%20as%3D%22targetPoint%22%2F%3E%3C%2FmxGeometry%3E%3C%2FmxCell%3E%3CmxCell%20id%3D%227%22%20value%3D%22%22%20style%3D%22endArrow%3Dnone%3Bhtml%3D1%3Brounded%3D0%3BentryX%3D0.5%3BentryY%3D1%3BentryDx%3D0%3BentryDy%3D0%3BexitX%3D1%3BexitY%3D0%3BexitDx%3D0%3BexitDy%3D0%3B%22%20edge%3D%221%22%20source%3D%222%22%20target%3D%224%22%20parent%3D%221%22%3E%3CmxGeometry%20relative%3D%221%22%20as%3D%22geometry%22%3E%3CmxPoint%20x%3D%22-69%22%20y%3D%22450%22%20as%3D%22sourcePoint%22%2F%3E%3CmxPoint%20x%3D%2291%22%20y%3D%22450%22%20as%3D%22targetPoint%22%2F%3E%3C%2FmxGeometry%3E%3C%2FmxCell%3E%3CmxCell%20id%3D%228%22%20value%3D%22N%22%20style%3D%22resizable%3D0%3Bhtml%3D1%3BwhiteSpace%3Dwrap%3Balign%3Dright%3BverticalAlign%3Dbottom%3B%22%20connectable%3D%220%22%20vertex%3D%221%22%20parent%3D%221%22%3E%3CmxGeometry%20x%3D%2230%22%20y%3D%22591.7777777777776%22%20as%3D%22geometry%22%2F%3E%3C%2FmxCell%3E%3CmxCell%20id%3D%229%22%20value%3D%22%22%20style%3D%22endArrow%3Dnone%3Bhtml%3D1%3Brounded%3D0%3BentryX%3D0.5%3BentryY%3D0%3BentryDx%3D0%3BentryDy%3D0%3BexitX%3D0.5%3BexitY%3D1%3BexitDx%3D0%3BexitDy%3D0%3B%22%20edge%3D%221%22%20source%3D%223%22%20target%3D%222%22%20parent%3D%221%22%3E%3CmxGeometry%20relative%3D%221%22%20as%3D%22geometry%22%3E%3CmxPoint%20x%3D%22-70%22%20y%3D%22490%22%20as%3D%22sourcePoint%22%2F%3E%3CmxPoint%20x%3D%2290%22%20y%3D%22490%22%20as%3D%22targetPoint%22%2F%3E%3C%2FmxGeometry%3E%3C%2FmxCell%3E%3C%2Froot%3E%3C%2FmxGraphModel%3E&lt;/span&gt;" style="shape=rhombus;perimeter=rhombusPerimeter;whiteSpace=wrap;html=1;align=center;" parent="1" vertex="1">
          <mxGeometry x="1182.5" y="1545.6400000000003" width="120" height="60" as="geometry" />
        </mxCell>
        <mxCell id="MZ66G47-zIH7tZrroCR9-163" value="" style="shape=link;html=1;rounded=0;entryX=1;entryY=0.5;entryDx=0;entryDy=0;exitX=0.5;exitY=0;exitDx=0;exitDy=0;" parent="1" source="MZ66G47-zIH7tZrroCR9-161" target="MZ66G47-zIH7tZrroCR9-136" edge="1">
          <mxGeometry relative="1" as="geometry">
            <mxPoint x="1449.52" y="1400" as="sourcePoint" />
            <mxPoint x="1449.52" y="960" as="targetPoint" />
            <Array as="points">
              <mxPoint x="1243" y="1330" />
            </Array>
          </mxGeometry>
        </mxCell>
        <mxCell id="MZ66G47-zIH7tZrroCR9-164" value="N" style="resizable=0;html=1;whiteSpace=wrap;align=right;verticalAlign=bottom;" parent="MZ66G47-zIH7tZrroCR9-163" connectable="0" vertex="1">
          <mxGeometry x="1" relative="1" as="geometry">
            <mxPoint x="132" y="190" as="offset" />
          </mxGeometry>
        </mxCell>
        <mxCell id="MZ66G47-zIH7tZrroCR9-165" value="" style="endArrow=none;html=1;rounded=0;exitX=1;exitY=1;exitDx=0;exitDy=0;entryX=0.5;entryY=1;entryDx=0;entryDy=0;" parent="1" source="MZ66G47-zIH7tZrroCR9-76" target="MZ66G47-zIH7tZrroCR9-161" edge="1">
          <mxGeometry relative="1" as="geometry">
            <mxPoint x="910" y="1460" as="sourcePoint" />
            <mxPoint x="1070" y="1460" as="targetPoint" />
            <Array as="points">
              <mxPoint x="638" y="1660" />
              <mxPoint x="1243" y="1660" />
            </Array>
          </mxGeometry>
        </mxCell>
        <mxCell id="MZ66G47-zIH7tZrroCR9-166" value="1" style="resizable=0;html=1;whiteSpace=wrap;align=right;verticalAlign=bottom;" parent="MZ66G47-zIH7tZrroCR9-165" connectable="0" vertex="1">
          <mxGeometry x="1" relative="1" as="geometry">
            <mxPoint x="20" y="34" as="offset" />
          </mxGeometry>
        </mxCell>
        <mxCell id="gwbG4OTnac7qc0_MGWQj-1" value="Meta Data Keys" style="rounded=1;arcSize=10;whiteSpace=wrap;html=1;align=center;" parent="1" vertex="1">
          <mxGeometry x="-174.86" y="1550" width="100" height="40" as="geometry" />
        </mxCell>
        <mxCell id="gwbG4OTnac7qc0_MGWQj-2" value="Has" style="shape=rhombus;perimeter=rhombusPerimeter;whiteSpace=wrap;html=1;align=center;" parent="1" vertex="1">
          <mxGeometry x="32" y="1540" width="120" height="60" as="geometry" />
        </mxCell>
        <mxCell id="gwbG4OTnac7qc0_MGWQj-3" value="" style="shape=link;html=1;rounded=0;exitX=1;exitY=0.5;exitDx=0;exitDy=0;entryX=0;entryY=0.5;entryDx=0;entryDy=0;" parent="1" source="gwbG4OTnac7qc0_MGWQj-1" target="gwbG4OTnac7qc0_MGWQj-2" edge="1">
          <mxGeometry relative="1" as="geometry">
            <mxPoint x="44.14" y="1500" as="sourcePoint" />
            <mxPoint x="204.14" y="1500" as="targetPoint" />
          </mxGeometry>
        </mxCell>
        <mxCell id="gwbG4OTnac7qc0_MGWQj-4" value="1" style="resizable=0;html=1;whiteSpace=wrap;align=right;verticalAlign=bottom;" parent="gwbG4OTnac7qc0_MGWQj-3" connectable="0" vertex="1">
          <mxGeometry x="1" relative="1" as="geometry">
            <mxPoint x="-52" as="offset" />
          </mxGeometry>
        </mxCell>
        <mxCell id="gwbG4OTnac7qc0_MGWQj-5" value="" style="endArrow=none;html=1;rounded=0;exitX=1;exitY=0.5;exitDx=0;exitDy=0;entryX=0;entryY=0.5;entryDx=0;entryDy=0;" parent="1" source="gwbG4OTnac7qc0_MGWQj-2" target="MZ66G47-zIH7tZrroCR9-90" edge="1">
          <mxGeometry relative="1" as="geometry">
            <mxPoint x="114" y="1500.14" as="sourcePoint" />
            <mxPoint x="274" y="1500.14" as="targetPoint" />
          </mxGeometry>
        </mxCell>
        <mxCell id="gwbG4OTnac7qc0_MGWQj-6" value="1" style="resizable=0;html=1;whiteSpace=wrap;align=right;verticalAlign=bottom;" parent="gwbG4OTnac7qc0_MGWQj-5" connectable="0" vertex="1">
          <mxGeometry x="1" relative="1" as="geometry">
            <mxPoint x="-47" as="offset" />
          </mxGeometry>
        </mxCell>
        <mxCell id="gwbG4OTnac7qc0_MGWQj-7" value="MDKID" style="ellipse;whiteSpace=wrap;html=1;align=center;fontStyle=4;" parent="1" vertex="1">
          <mxGeometry x="-185.86" y="1610" width="45" height="40" as="geometry" />
        </mxCell>
        <mxCell id="gwbG4OTnac7qc0_MGWQj-10" value="" style="endArrow=none;html=1;rounded=0;entryX=0.5;entryY=0;entryDx=0;entryDy=0;exitX=0.5;exitY=1;exitDx=0;exitDy=0;" parent="1" source="gwbG4OTnac7qc0_MGWQj-1" target="J_-Y_QWDQk-syCFWrhwt-1" edge="1">
          <mxGeometry relative="1" as="geometry">
            <mxPoint x="-155.86" y="1540" as="sourcePoint" />
            <mxPoint x="-94.36" y="1610" as="targetPoint" />
          </mxGeometry>
        </mxCell>
        <mxCell id="gwbG4OTnac7qc0_MGWQj-11" value="" style="endArrow=none;html=1;rounded=0;exitX=0.5;exitY=0;exitDx=0;exitDy=0;entryX=0.5;entryY=1;entryDx=0;entryDy=0;" parent="1" source="gwbG4OTnac7qc0_MGWQj-7" target="gwbG4OTnac7qc0_MGWQj-1" edge="1">
          <mxGeometry relative="1" as="geometry">
            <mxPoint x="-155.86" y="1540" as="sourcePoint" />
            <mxPoint x="4.140000000000001" y="1540" as="targetPoint" />
          </mxGeometry>
        </mxCell>
        <mxCell id="gwbG4OTnac7qc0_MGWQj-12" value="" style="endArrow=none;html=1;rounded=0;exitX=0.5;exitY=1;exitDx=0;exitDy=0;entryX=0.5;entryY=0;entryDx=0;entryDy=0;" parent="1" source="MZ66G47-zIH7tZrroCR9-47" target="MZ66G47-zIH7tZrroCR9-52" edge="1">
          <mxGeometry relative="1" as="geometry">
            <mxPoint x="1080" y="625.23" as="sourcePoint" />
            <mxPoint x="1240" y="625.23" as="targetPoint" />
          </mxGeometry>
        </mxCell>
        <mxCell id="gwbG4OTnac7qc0_MGWQj-13" value="1" style="resizable=0;html=1;whiteSpace=wrap;align=right;verticalAlign=bottom;" parent="gwbG4OTnac7qc0_MGWQj-12" connectable="0" vertex="1">
          <mxGeometry x="1" relative="1" as="geometry">
            <mxPoint x="14" y="-7" as="offset" />
          </mxGeometry>
        </mxCell>
        <mxCell id="gwbG4OTnac7qc0_MGWQj-14" value="" style="endArrow=none;html=1;rounded=0;exitX=0.5;exitY=1;exitDx=0;exitDy=0;entryX=0.5;entryY=0;entryDx=0;entryDy=0;" parent="1" source="MZ66G47-zIH7tZrroCR9-58" target="MZ66G47-zIH7tZrroCR9-63" edge="1">
          <mxGeometry relative="1" as="geometry">
            <mxPoint x="1030" y="650" as="sourcePoint" />
            <mxPoint x="1190" y="650" as="targetPoint" />
          </mxGeometry>
        </mxCell>
        <mxCell id="gwbG4OTnac7qc0_MGWQj-15" value="1" style="resizable=0;html=1;whiteSpace=wrap;align=right;verticalAlign=bottom;" parent="gwbG4OTnac7qc0_MGWQj-14" connectable="0" vertex="1">
          <mxGeometry x="1" relative="1" as="geometry">
            <mxPoint x="10" y="-7" as="offset" />
          </mxGeometry>
        </mxCell>
        <mxCell id="fa4ghc-SvFE1_xX9W7SA-3" value="ProvinceID" style="ellipse;whiteSpace=wrap;html=1;align=center;fontStyle=4;" parent="1" vertex="1">
          <mxGeometry x="490" y="1610.3400000000001" width="70" height="40" as="geometry" />
        </mxCell>
        <mxCell id="fa4ghc-SvFE1_xX9W7SA-4" value="Name" style="ellipse;whiteSpace=wrap;html=1;align=center;" parent="1" vertex="1">
          <mxGeometry x="564.5" y="1610.3400000000001" width="60" height="40" as="geometry" />
        </mxCell>
        <mxCell id="fa4ghc-SvFE1_xX9W7SA-5" value="" style="endArrow=none;html=1;rounded=0;exitX=0.5;exitY=0;exitDx=0;exitDy=0;entryX=0.25;entryY=1;entryDx=0;entryDy=0;" parent="1" source="fa4ghc-SvFE1_xX9W7SA-3" target="MZ66G47-zIH7tZrroCR9-76" edge="1">
          <mxGeometry relative="1" as="geometry">
            <mxPoint x="628" y="1480.8200000000002" as="sourcePoint" />
            <mxPoint x="788" y="1480.8200000000002" as="targetPoint" />
          </mxGeometry>
        </mxCell>
        <mxCell id="fa4ghc-SvFE1_xX9W7SA-6" value="" style="endArrow=none;html=1;rounded=0;exitX=0.25;exitY=1;exitDx=0;exitDy=0;entryX=0.5;entryY=0;entryDx=0;entryDy=0;" parent="1" source="MZ66G47-zIH7tZrroCR9-76" target="fa4ghc-SvFE1_xX9W7SA-4" edge="1">
          <mxGeometry relative="1" as="geometry">
            <mxPoint x="628" y="1480.8200000000002" as="sourcePoint" />
            <mxPoint x="788" y="1480.8200000000002" as="targetPoint" />
          </mxGeometry>
        </mxCell>
        <mxCell id="fa4ghc-SvFE1_xX9W7SA-7" value="ProvinceID" style="ellipse;whiteSpace=wrap;html=1;align=center;fontStyle=4;" parent="1" vertex="1">
          <mxGeometry x="801.5" y="1610" width="70" height="40" as="geometry" />
        </mxCell>
        <mxCell id="fa4ghc-SvFE1_xX9W7SA-8" value="Name" style="ellipse;whiteSpace=wrap;html=1;align=center;" parent="1" vertex="1">
          <mxGeometry x="876" y="1610.4800000000002" width="60" height="40" as="geometry" />
        </mxCell>
        <mxCell id="fa4ghc-SvFE1_xX9W7SA-9" value="" style="endArrow=none;html=1;rounded=0;entryX=0.5;entryY=0;entryDx=0;entryDy=0;exitX=0.5;exitY=1;exitDx=0;exitDy=0;" parent="1" source="MZ66G47-zIH7tZrroCR9-77" target="fa4ghc-SvFE1_xX9W7SA-8" edge="1">
          <mxGeometry relative="1" as="geometry">
            <mxPoint x="741.5" y="1480.3400000000001" as="sourcePoint" />
            <mxPoint x="901.5" y="1480.3400000000001" as="targetPoint" />
          </mxGeometry>
        </mxCell>
        <mxCell id="fa4ghc-SvFE1_xX9W7SA-10" value="" style="endArrow=none;html=1;rounded=0;exitX=0.5;exitY=1;exitDx=0;exitDy=0;entryX=0.5;entryY=0;entryDx=0;entryDy=0;" parent="1" source="MZ66G47-zIH7tZrroCR9-77" target="fa4ghc-SvFE1_xX9W7SA-7" edge="1">
          <mxGeometry relative="1" as="geometry">
            <mxPoint x="741.5" y="1480.3400000000001" as="sourcePoint" />
            <mxPoint x="901.5" y="1480.3400000000001" as="targetPoint" />
          </mxGeometry>
        </mxCell>
        <mxCell id="fa4ghc-SvFE1_xX9W7SA-11" value="" style="endArrow=none;html=1;rounded=0;exitX=0;exitY=0.25;exitDx=0;exitDy=0;entryX=1;entryY=0.25;entryDx=0;entryDy=0;" parent="1" source="QIARWO1vvbc_UHseHaY3-38" target="QIARWO1vvbc_UHseHaY3-38" edge="1">
          <mxGeometry relative="1" as="geometry">
            <mxPoint x="-110" y="860" as="sourcePoint" />
            <mxPoint x="50" y="860" as="targetPoint" />
          </mxGeometry>
        </mxCell>
        <mxCell id="fa4ghc-SvFE1_xX9W7SA-12" value="" style="endArrow=none;html=1;rounded=0;exitX=0;exitY=0.25;exitDx=0;exitDy=0;entryX=1;entryY=0.25;entryDx=0;entryDy=0;" parent="1" source="MZ66G47-zIH7tZrroCR9-136" target="MZ66G47-zIH7tZrroCR9-136" edge="1">
          <mxGeometry relative="1" as="geometry">
            <mxPoint x="1290" y="900" as="sourcePoint" />
            <mxPoint x="1450" y="900" as="targetPoint" />
          </mxGeometry>
        </mxCell>
        <mxCell id="fa4ghc-SvFE1_xX9W7SA-15" value="" style="endArrow=none;html=1;rounded=0;exitX=1;exitY=0.5;exitDx=0;exitDy=0;entryX=0;entryY=0.5;entryDx=0;entryDy=0;" parent="1" source="QIARWO1vvbc_UHseHaY3-39" target="0CfdTzKVjlrWjt0-x5wx-31" edge="1">
          <mxGeometry relative="1" as="geometry">
            <mxPoint x="-80" y="860" as="sourcePoint" />
            <mxPoint x="80" y="860" as="targetPoint" />
          </mxGeometry>
        </mxCell>
        <mxCell id="fa4ghc-SvFE1_xX9W7SA-16" value="N" style="resizable=0;html=1;whiteSpace=wrap;align=right;verticalAlign=bottom;" parent="fa4ghc-SvFE1_xX9W7SA-15" connectable="0" vertex="1">
          <mxGeometry x="1" relative="1" as="geometry">
            <mxPoint x="-110" y="20" as="offset" />
          </mxGeometry>
        </mxCell>
        <mxCell id="fa4ghc-SvFE1_xX9W7SA-26" value="AdID" style="ellipse;whiteSpace=wrap;html=1;align=center;fontStyle=4;" parent="1" vertex="1">
          <mxGeometry x="-760" y="1090" width="50" height="40" as="geometry" />
        </mxCell>
        <mxCell id="fa4ghc-SvFE1_xX9W7SA-30" value="" style="endArrow=none;html=1;rounded=0;exitX=1;exitY=0.5;exitDx=0;exitDy=0;entryX=0.5;entryY=0;entryDx=0;entryDy=0;" parent="1" source="0CfdTzKVjlrWjt0-x5wx-74" target="MZ66G47-zIH7tZrroCR9-69" edge="1">
          <mxGeometry relative="1" as="geometry">
            <mxPoint x="360" y="1090" as="sourcePoint" />
            <mxPoint x="520" y="1090" as="targetPoint" />
            <Array as="points">
              <mxPoint x="588" y="810" />
            </Array>
          </mxGeometry>
        </mxCell>
        <mxCell id="fa4ghc-SvFE1_xX9W7SA-31" value="M" style="resizable=0;html=1;whiteSpace=wrap;align=right;verticalAlign=bottom;" parent="fa4ghc-SvFE1_xX9W7SA-30" connectable="0" vertex="1">
          <mxGeometry x="1" relative="1" as="geometry">
            <mxPoint x="12" y="-30" as="offset" />
          </mxGeometry>
        </mxCell>
        <mxCell id="fa4ghc-SvFE1_xX9W7SA-33" value="ARID" style="ellipse;whiteSpace=wrap;html=1;align=center;fontStyle=4;" parent="1" vertex="1">
          <mxGeometry x="1192.5" y="839.77" width="45" height="40" as="geometry" />
        </mxCell>
        <mxCell id="fa4ghc-SvFE1_xX9W7SA-34" value="" style="endArrow=none;html=1;rounded=0;entryX=0;entryY=0.5;entryDx=0;entryDy=0;exitX=1;exitY=1;exitDx=0;exitDy=0;" parent="1" source="QIARWO1vvbc_UHseHaY3-54" target="fa4ghc-SvFE1_xX9W7SA-33" edge="1">
          <mxGeometry relative="1" as="geometry">
            <mxPoint x="840" y="780" as="sourcePoint" />
            <mxPoint x="1000" y="780" as="targetPoint" />
            <Array as="points">
              <mxPoint x="1130" y="860" />
            </Array>
          </mxGeometry>
        </mxCell>
        <mxCell id="fa4ghc-SvFE1_xX9W7SA-47" value="Register Time" style="ellipse;whiteSpace=wrap;html=1;align=center;" parent="1" vertex="1">
          <mxGeometry x="815" y="563" width="100" height="40" as="geometry" />
        </mxCell>
        <mxCell id="fa4ghc-SvFE1_xX9W7SA-48" value="" style="endArrow=none;html=1;rounded=0;entryX=0.5;entryY=1;entryDx=0;entryDy=0;exitX=1;exitY=0.5;exitDx=0;exitDy=0;" parent="1" source="0CfdTzKVjlrWjt0-x5wx-15" target="fa4ghc-SvFE1_xX9W7SA-47" edge="1">
          <mxGeometry relative="1" as="geometry">
            <mxPoint x="420" y="720" as="sourcePoint" />
            <mxPoint x="580" y="720" as="targetPoint" />
            <Array as="points">
              <mxPoint x="865" y="648" />
            </Array>
          </mxGeometry>
        </mxCell>
        <mxCell id="fa4ghc-SvFE1_xX9W7SA-51" value="" style="endArrow=none;html=1;rounded=0;entryX=1;entryY=1;entryDx=0;entryDy=0;exitX=0.5;exitY=0;exitDx=0;exitDy=0;" parent="1" source="MpsQf4eEQ7SsRS4HPuvZ-1" target="QIARWO1vvbc_UHseHaY3-39" edge="1">
          <mxGeometry relative="1" as="geometry">
            <mxPoint x="-300" y="870" as="sourcePoint" />
            <mxPoint x="-140" y="840" as="targetPoint" />
          </mxGeometry>
        </mxCell>
        <mxCell id="J_-Y_QWDQk-syCFWrhwt-1" value="Keys" style="ellipse;whiteSpace=wrap;html=1;align=center;" parent="1" vertex="1">
          <mxGeometry x="-116.86" y="1610" width="48" height="40" as="geometry" />
        </mxCell>
        <mxCell id="J_-Y_QWDQk-syCFWrhwt-3" value="" style="shape=link;html=1;rounded=0;exitX=0.5;exitY=1;exitDx=0;exitDy=0;entryX=0.5;entryY=0;entryDx=0;entryDy=0;" parent="1" source="0CfdTzKVjlrWjt0-x5wx-49" target="MZ66G47-zIH7tZrroCR9-78" edge="1">
          <mxGeometry relative="1" as="geometry">
            <mxPoint x="590" y="1410" as="sourcePoint" />
            <mxPoint x="750" y="1410" as="targetPoint" />
          </mxGeometry>
        </mxCell>
        <mxCell id="J_-Y_QWDQk-syCFWrhwt-4" value="N" style="resizable=0;html=1;whiteSpace=wrap;align=right;verticalAlign=bottom;" parent="J_-Y_QWDQk-syCFWrhwt-3" connectable="0" vertex="1">
          <mxGeometry x="1" relative="1" as="geometry">
            <mxPoint x="16" y="-20" as="offset" />
          </mxGeometry>
        </mxCell>
        <mxCell id="J_-Y_QWDQk-syCFWrhwt-6" value="AD" style="rounded=1;arcSize=10;whiteSpace=wrap;html=1;align=center;" parent="1" vertex="1">
          <mxGeometry x="-653.5" y="1170" width="100" height="40" as="geometry" />
        </mxCell>
        <mxCell id="J_-Y_QWDQk-syCFWrhwt-7" value="" style="endArrow=none;html=1;rounded=0;exitX=0;exitY=0.25;exitDx=0;exitDy=0;entryX=1;entryY=0.25;entryDx=0;entryDy=0;" parent="1" source="J_-Y_QWDQk-syCFWrhwt-6" target="J_-Y_QWDQk-syCFWrhwt-6" edge="1">
          <mxGeometry relative="1" as="geometry">
            <mxPoint x="180" y="970" as="sourcePoint" />
            <mxPoint x="340" y="970" as="targetPoint" />
          </mxGeometry>
        </mxCell>
        <mxCell id="J_-Y_QWDQk-syCFWrhwt-10" value="" style="shape=link;html=1;rounded=0;entryX=0.75;entryY=0;entryDx=0;entryDy=0;exitX=0.5;exitY=1;exitDx=0;exitDy=0;" parent="1" source="MZ66G47-zIH7tZrroCR9-63" target="QIARWO1vvbc_UHseHaY3-54" edge="1">
          <mxGeometry relative="1" as="geometry">
            <mxPoint x="1030" y="730" as="sourcePoint" />
            <mxPoint x="1190" y="730" as="targetPoint" />
            <Array as="points">
              <mxPoint x="1160" y="720" />
              <mxPoint x="1105" y="720" />
            </Array>
          </mxGeometry>
        </mxCell>
        <mxCell id="J_-Y_QWDQk-syCFWrhwt-11" value="1" style="resizable=0;html=1;whiteSpace=wrap;align=right;verticalAlign=bottom;" parent="J_-Y_QWDQk-syCFWrhwt-10" connectable="0" vertex="1">
          <mxGeometry x="1" relative="1" as="geometry">
            <mxPoint x="65" y="-70" as="offset" />
          </mxGeometry>
        </mxCell>
        <mxCell id="J_-Y_QWDQk-syCFWrhwt-12" value="" style="endArrow=none;html=1;rounded=0;exitX=0.5;exitY=0;exitDx=0;exitDy=0;entryX=0.5;entryY=1;entryDx=0;entryDy=0;" parent="1" source="MZ66G47-zIH7tZrroCR9-13" target="J_-Y_QWDQk-syCFWrhwt-6" edge="1">
          <mxGeometry relative="1" as="geometry">
            <mxPoint x="-710" y="1130" as="sourcePoint" />
            <mxPoint x="-550" y="1130" as="targetPoint" />
          </mxGeometry>
        </mxCell>
        <mxCell id="J_-Y_QWDQk-syCFWrhwt-13" value="" style="endArrow=none;html=1;rounded=0;exitX=0.5;exitY=0;exitDx=0;exitDy=0;entryX=0.25;entryY=1;entryDx=0;entryDy=0;" parent="1" source="0CfdTzKVjlrWjt0-x5wx-57" target="J_-Y_QWDQk-syCFWrhwt-6" edge="1">
          <mxGeometry relative="1" as="geometry">
            <mxPoint x="-710" y="1130" as="sourcePoint" />
            <mxPoint x="-550" y="1130" as="targetPoint" />
          </mxGeometry>
        </mxCell>
        <mxCell id="J_-Y_QWDQk-syCFWrhwt-14" value="" style="endArrow=none;html=1;rounded=0;exitX=1;exitY=0;exitDx=0;exitDy=0;entryX=0.5;entryY=1;entryDx=0;entryDy=0;" parent="1" source="J_-Y_QWDQk-syCFWrhwt-6" target="0CfdTzKVjlrWjt0-x5wx-54" edge="1">
          <mxGeometry relative="1" as="geometry">
            <mxPoint x="-710" y="1130" as="sourcePoint" />
            <mxPoint x="-550" y="1130" as="targetPoint" />
            <Array as="points">
              <mxPoint x="-463" y="1170" />
            </Array>
          </mxGeometry>
        </mxCell>
        <mxCell id="J_-Y_QWDQk-syCFWrhwt-15" value="" style="endArrow=none;html=1;rounded=0;exitX=0.5;exitY=1;exitDx=0;exitDy=0;entryX=0.25;entryY=0;entryDx=0;entryDy=0;" parent="1" source="0CfdTzKVjlrWjt0-x5wx-50" target="J_-Y_QWDQk-syCFWrhwt-6" edge="1">
          <mxGeometry relative="1" as="geometry">
            <mxPoint x="-710" y="1130" as="sourcePoint" />
            <mxPoint x="-550" y="1130" as="targetPoint" />
          </mxGeometry>
        </mxCell>
        <mxCell id="J_-Y_QWDQk-syCFWrhwt-16" value="" style="endArrow=none;html=1;rounded=0;exitX=0.75;exitY=0;exitDx=0;exitDy=0;entryX=0.5;entryY=1;entryDx=0;entryDy=0;" parent="1" source="J_-Y_QWDQk-syCFWrhwt-6" target="0CfdTzKVjlrWjt0-x5wx-53" edge="1">
          <mxGeometry relative="1" as="geometry">
            <mxPoint x="-710" y="1130" as="sourcePoint" />
            <mxPoint x="-550" y="1130" as="targetPoint" />
          </mxGeometry>
        </mxCell>
        <mxCell id="J_-Y_QWDQk-syCFWrhwt-17" value="" style="endArrow=none;html=1;rounded=0;exitX=0.5;exitY=1;exitDx=0;exitDy=0;" parent="1" source="0CfdTzKVjlrWjt0-x5wx-52" target="J_-Y_QWDQk-syCFWrhwt-6" edge="1">
          <mxGeometry relative="1" as="geometry">
            <mxPoint x="-710" y="1130" as="sourcePoint" />
            <mxPoint x="-550" y="1130" as="targetPoint" />
          </mxGeometry>
        </mxCell>
        <mxCell id="J_-Y_QWDQk-syCFWrhwt-19" value="" style="endArrow=none;html=1;rounded=0;exitX=0.5;exitY=1;exitDx=0;exitDy=0;entryX=0;entryY=0;entryDx=0;entryDy=0;" parent="1" source="fa4ghc-SvFE1_xX9W7SA-26" target="J_-Y_QWDQk-syCFWrhwt-6" edge="1">
          <mxGeometry relative="1" as="geometry">
            <mxPoint x="-710" y="1130" as="sourcePoint" />
            <mxPoint x="-550" y="1130" as="targetPoint" />
            <Array as="points">
              <mxPoint x="-735" y="1170" />
            </Array>
          </mxGeometry>
        </mxCell>
        <mxCell id="J_-Y_QWDQk-syCFWrhwt-20" value="" style="endArrow=none;html=1;rounded=0;exitX=0.5;exitY=0;exitDx=0;exitDy=0;entryX=0.75;entryY=1;entryDx=0;entryDy=0;" parent="1" source="0CfdTzKVjlrWjt0-x5wx-96" target="J_-Y_QWDQk-syCFWrhwt-6" edge="1">
          <mxGeometry relative="1" as="geometry">
            <mxPoint x="-710" y="1160" as="sourcePoint" />
            <mxPoint x="-550" y="1160" as="targetPoint" />
          </mxGeometry>
        </mxCell>
        <mxCell id="J_-Y_QWDQk-syCFWrhwt-21" value="Note" style="ellipse;whiteSpace=wrap;html=1;align=center;" parent="1" vertex="1">
          <mxGeometry x="726.5" y="920" width="50" height="40" as="geometry" />
        </mxCell>
        <mxCell id="J_-Y_QWDQk-syCFWrhwt-22" value="Status" style="rounded=1;arcSize=10;whiteSpace=wrap;html=1;align=center;" parent="1" vertex="1">
          <mxGeometry x="820" y="970" width="100" height="40" as="geometry" />
        </mxCell>
        <mxCell id="J_-Y_QWDQk-syCFWrhwt-23" value="" style="endArrow=none;html=1;rounded=0;entryX=1;entryY=0.25;entryDx=0;entryDy=0;exitX=0;exitY=0.25;exitDx=0;exitDy=0;" parent="1" source="J_-Y_QWDQk-syCFWrhwt-22" target="J_-Y_QWDQk-syCFWrhwt-22" edge="1">
          <mxGeometry relative="1" as="geometry">
            <mxPoint x="510" y="1000" as="sourcePoint" />
            <mxPoint x="670" y="1000" as="targetPoint" />
          </mxGeometry>
        </mxCell>
        <mxCell id="J_-Y_QWDQk-syCFWrhwt-24" value="Time" style="ellipse;whiteSpace=wrap;html=1;align=center;" parent="1" vertex="1">
          <mxGeometry x="730" y="1020" width="46.5" height="40" as="geometry" />
        </mxCell>
        <mxCell id="J_-Y_QWDQk-syCFWrhwt-25" value="" style="endArrow=none;html=1;rounded=0;entryX=0;entryY=0.5;entryDx=0;entryDy=0;exitX=1;exitY=0;exitDx=0;exitDy=0;" parent="1" source="0CfdTzKVjlrWjt0-x5wx-88" target="J_-Y_QWDQk-syCFWrhwt-21" edge="1">
          <mxGeometry relative="1" as="geometry">
            <mxPoint x="530" y="1000" as="sourcePoint" />
            <mxPoint x="690" y="1000" as="targetPoint" />
          </mxGeometry>
        </mxCell>
        <mxCell id="J_-Y_QWDQk-syCFWrhwt-26" value="" style="endArrow=none;html=1;rounded=0;entryX=0;entryY=0.5;entryDx=0;entryDy=0;exitX=1;exitY=1;exitDx=0;exitDy=0;" parent="1" source="0CfdTzKVjlrWjt0-x5wx-88" target="J_-Y_QWDQk-syCFWrhwt-24" edge="1">
          <mxGeometry relative="1" as="geometry">
            <mxPoint x="530" y="1000" as="sourcePoint" />
            <mxPoint x="690" y="1000" as="targetPoint" />
          </mxGeometry>
        </mxCell>
        <mxCell id="J_-Y_QWDQk-syCFWrhwt-27" value="" style="endArrow=none;html=1;rounded=0;exitX=1;exitY=0.5;exitDx=0;exitDy=0;entryX=0;entryY=0.5;entryDx=0;entryDy=0;" parent="1" source="0CfdTzKVjlrWjt0-x5wx-88" target="J_-Y_QWDQk-syCFWrhwt-22" edge="1">
          <mxGeometry relative="1" as="geometry">
            <mxPoint x="580" y="950" as="sourcePoint" />
            <mxPoint x="740" y="950" as="targetPoint" />
          </mxGeometry>
        </mxCell>
        <mxCell id="J_-Y_QWDQk-syCFWrhwt-28" value="K" style="resizable=0;html=1;whiteSpace=wrap;align=right;verticalAlign=bottom;" parent="J_-Y_QWDQk-syCFWrhwt-27" connectable="0" vertex="1">
          <mxGeometry x="1" relative="1" as="geometry">
            <mxPoint x="-44" as="offset" />
          </mxGeometry>
        </mxCell>
        <mxCell id="MpsQf4eEQ7SsRS4HPuvZ-1" value="Time" style="ellipse;whiteSpace=wrap;html=1;align=center;" vertex="1" parent="1">
          <mxGeometry x="-259" y="839.77" width="50" height="40" as="geometry" />
        </mxCell>
        <mxCell id="MpsQf4eEQ7SsRS4HPuvZ-2" value="Note" style="ellipse;whiteSpace=wrap;html=1;align=center;" vertex="1" parent="1">
          <mxGeometry x="-390" y="839.77" width="50" height="40" as="geometry" />
        </mxCell>
        <mxCell id="MpsQf4eEQ7SsRS4HPuvZ-5" value="" style="endArrow=none;html=1;rounded=0;exitX=0.5;exitY=1;exitDx=0;exitDy=0;entryX=0;entryY=0.5;entryDx=0;entryDy=0;" edge="1" parent="1" source="QIARWO1vvbc_UHseHaY3-39" target="8Y0XfkwklUIzWa_7E_HV-42">
          <mxGeometry relative="1" as="geometry">
            <mxPoint x="-250" y="1050" as="sourcePoint" />
            <mxPoint x="-90" y="1050" as="targetPoint" />
            <Array as="points">
              <mxPoint x="-300" y="1190" />
            </Array>
          </mxGeometry>
        </mxCell>
        <mxCell id="MpsQf4eEQ7SsRS4HPuvZ-6" value="K" style="resizable=0;html=1;whiteSpace=wrap;align=right;verticalAlign=bottom;" connectable="0" vertex="1" parent="MpsQf4eEQ7SsRS4HPuvZ-5">
          <mxGeometry x="1" relative="1" as="geometry">
            <mxPoint x="-270" y="-220" as="offset" />
          </mxGeometry>
        </mxCell>
        <mxCell id="MpsQf4eEQ7SsRS4HPuvZ-7" value="" style="endArrow=none;html=1;rounded=0;exitX=0.5;exitY=0;exitDx=0;exitDy=0;entryX=0;entryY=1;entryDx=0;entryDy=0;" edge="1" parent="1" source="MpsQf4eEQ7SsRS4HPuvZ-2" target="QIARWO1vvbc_UHseHaY3-39">
          <mxGeometry relative="1" as="geometry">
            <mxPoint x="-340" y="890" as="sourcePoint" />
            <mxPoint x="-180" y="890" as="targetPoint" />
          </mxGeometry>
        </mxCell>
      </root>
    </mxGraphModel>
  </diagram>
</mxfile>
